<svg data-v-0dd9719b="" version="1.0" xmlns="http://www.w3.org/2000/svg" xmlns:xlink="http://www.w3.org/1999/xlink" width="100%" height="100%" viewBox="0 0 340.000000 250.000000" preserveAspectRatio="xMidYMid meet" color-interpolation-filters="sRGB" style="margin: auto;"> <rect data-v-0dd9719b="" x="0" y="0" width="100%" height="100%" fill="#166a8f" fill-opacity="1" class="background"></rect> <rect data-v-0dd9719b="" x="0" y="0" width="100%" height="100%" fill="url(#watermark)" fill-opacity="1" class="watermarklayer"></rect> <g data-v-0dd9719b="" fill="#feffff" class="iconbordersvg" transform="translate(80.33299255371094,32.19429016113281)"><g data-gra="graph-icon-name"><g><rect data-gra="graph-name-bg" stroke-width="2" class="i-icon-bg" x="0" y="0" width="179.33401489257812" height="185.61141967773438" fill-opacity="0" stroke="rgb(254, 255, 255)"></rect> <!----> <!----> </g> <g transform="translate(0,0)"><g data-gra="graph-icon" transform="translate(18.667007446289062,0)"><g><rect data-gra="graph-name-bg" stroke-width="2" class="i-icon-bg" x="0" y="0" width="142" height="140.3858184814453" fill-opacity="0"></rect>   </g> <g transform="translate(5,5)"><g class="iconsvg-imagesvg"><g>  <defs><filter id="colors2689821747"><feColorMatrix type="matrix" values="0 0 0 0 0.9921875  0 0 0 0 0.99609375  0 0 0 0 0.99609375  0 0 0 1 0" class="icon-fecolormatrix"></feColorMatrix></filter> <filter id="colorsf3382729765"><feColorMatrix type="matrix" values="0 0 0 0 0.99609375  0 0 0 0 0.99609375  0 0 0 0 0.99609375  0 0 0 1 0" class="icon-fecolormatrix"></feColorMatrix></filter> <filter id="colorsb7063719809"><feColorMatrix type="matrix" values="0 0 0 0 0  0 0 0 0 0  0 0 0 0 0  0 0 0 1 0" class="icon-fecolormatrix"></feColorMatrix></filter></defs></g></g></g></g> <g data-gra="graph-name" transform="translate(0,140.3858184814453)" mask="url(#4abedc93-0802-462f-aa1a-23c16d608f2e)"><g><rect data-gra="graph-name-bg" stroke-width="2" class="i-icon-bg" x="0" y="0" width="179.33401489257812" height="45.22560119628906" fill-opacity="1"></rect> <!----> <!----> </g> <g transform="translate(5,5)"><g data-gra="path-name" fill-rule="" class="tp-name"><g transform="scale(1.7200000000000006)"><g><path d="M10.42-13.28L10.42 0 5.04 0 5.04-13.28 0.24-13.28 0.24-17.01 15.22-17.01 15.22-13.28 10.42-13.28ZM22.99 0.39Q19.4 0.39 17.63-1.3 15.85-2.99 15.85-6.63L15.85-6.63Q15.85-8.63 16.22-10.13 16.6-11.64 17.13-12.24L17.13-12.24Q17.82-13.01 19.66-13.52 21.49-14.03 23.1-14.03L23.1-14.03Q26.96-14.03 28.6-12.39 30.24-10.75 30.24-7.13L30.24-7.13Q30.24-3.25 28.48-1.43 26.72 0.39 22.99 0.39L22.99 0.39ZM23.07-3.1Q24.24-3.1 24.6-3.93 24.96-4.75 24.96-6.84L24.96-6.84Q24.96-8.3 24.81-9.09 24.66-9.88 24.25-10.25 23.85-10.63 23.01-10.63L23.01-10.63Q21.82-10.63 21.64-10.42L21.64-10.42Q21.4-10.21 21.25-9.1 21.1-8 21.1-6.81L21.1-6.81Q21.1-4.78 21.51-3.94 21.91-3.1 23.07-3.1L23.07-3.1ZM40.81-13.73L45.91-13.73 45.91 0 41.76 0 41.19-2.3Q39.04 0.3 36.06 0.3L36.06 0.3Q34.99 0.3 34.04 0 33.1-0.3 32.63-0.87L32.63-0.87Q32.36-1.19 32.22-2.51 32.09-3.82 32.09-6.51L32.09-6.51 32.09-13.73 37.19-13.73 37.19-6.57Q37.19-5.97 37.22-5.16 37.25-4.36 37.4-4.15L37.4-4.15Q37.61-3.85 38.6-3.85L38.6-3.85 39.07-3.88Q39.91-3.91 40.81-4.27L40.81-4.27 40.81-13.73ZM56.87-14.03Q57.25-14.03 57.69-13.94 58.12-13.85 58.33-13.73L58.33-13.73Q58.33-13.07 58.18-11.57 58.03-10.06 57.91-9.43L57.91-9.43Q57.61-9.46 56.81-9.46L56.81-9.46Q54.93-9.46 53.46-9.25L53.46-9.25 53.46 0 48.36 0 48.36-13.73 52.63-13.73 53.22-11.52 53.25-11.52Q54.12-12.66 55.1-13.34 56.09-14.03 56.87-14.03L56.87-14.03ZM70.69 0L69.79-3.73 64.84-3.73 63.94 0 58.45 0 63.94-17.01 70.96-17.01 76.21 0 70.69 0ZM67.4-13.34L67.28-13.34 65.52-7.04 69.07-7.04 67.4-13.34ZM86.66-14.03Q88.99-14.03 90.25-12.63 91.52-11.22 91.52-7.67L91.52-7.67Q91.52-5.07 91-3.24 90.48-1.4 89.82-0.9L89.82-0.9Q89.04-0.27 87.52 0.03 86 0.33 84.06 0.33L84.06 0.33Q82.57 0.33 80.72 0.1 78.87-0.12 77.4-0.6L77.4-0.6 77.4-17.91 82.57-18.12 82.57-15.31Q82.57-15.07 82.55-14.21 82.54-13.34 82.48-12.76 82.42-12.18 82.3-11.88L82.3-11.88 82.48-11.67Q83.16-12.72 84.21-13.37 85.25-14.03 86.66-14.03L86.66-14.03ZM85.82-3.25Q86-3.55 86.13-4.66 86.27-5.76 86.27-6.78L86.27-6.78Q86.27-7.97 86.16-8.66 86.06-9.34 85.66-9.75 85.25-10.15 84.42-10.15L84.42-10.15Q83.67-10.15 82.51-9.94L82.51-9.94 82.51-3.19Q83.61-3.01 84.81-3.01L84.81-3.01Q85.67-3.01 85.82-3.25L85.82-3.25ZM96.15-15.43Q95.13-15.43 94.4-16.12 93.67-16.81 93.67-17.76L93.67-17.76Q93.67-18.72 94.4-19.4 95.13-20.09 96.15-20.09L96.15-20.09Q97.16-20.09 97.88-19.4 98.6-18.72 98.6-17.76L98.6-17.76Q98.6-16.81 97.88-16.12 97.16-15.43 96.15-15.43L96.15-15.43ZM93.58 0L93.58-13.73 98.69-13.73 98.69 0 93.58 0Z" transform="translate(-0.24000000953674316, 20.09000015258789)"></path></g> <!----> <!----> <!----> <!----> <!----> <!----> <!----></g></g> <!----></g></g></g></g></g><defs v-gra="od"></defs><mask id="4abedc93-0802-462f-aa1a-23c16d608f2e"><g fill="white"><rect data-gra="graph-name-bg" stroke-width="2" class="i-icon-bg" x="0" y="0" width="179.33401489257812" height="45.22560119628906" fill-opacity="1"></rect>   </g> <g transform="translate(5,5)" fill="black"><g data-gra="path-name" fill-rule="" class="tp-name"><g transform="scale(1.7200000000000006)"><g><path d="M10.42-13.28L10.42 0 5.04 0 5.04-13.28 0.24-13.28 0.24-17.01 15.22-17.01 15.22-13.28 10.42-13.28ZM22.99 0.39Q19.4 0.39 17.63-1.3 15.85-2.99 15.85-6.63L15.85-6.63Q15.85-8.63 16.22-10.13 16.6-11.64 17.13-12.24L17.13-12.24Q17.82-13.01 19.66-13.52 21.49-14.03 23.1-14.03L23.1-14.03Q26.96-14.03 28.6-12.39 30.24-10.75 30.24-7.13L30.24-7.13Q30.24-3.25 28.48-1.43 26.72 0.39 22.99 0.39L22.99 0.39ZM23.07-3.1Q24.24-3.1 24.6-3.93 24.96-4.75 24.96-6.84L24.96-6.84Q24.96-8.3 24.81-9.09 24.66-9.88 24.25-10.25 23.85-10.63 23.01-10.63L23.01-10.63Q21.82-10.63 21.64-10.42L21.64-10.42Q21.4-10.21 21.25-9.1 21.1-8 21.1-6.81L21.1-6.81Q21.1-4.78 21.51-3.94 21.91-3.1 23.07-3.1L23.07-3.1ZM40.81-13.73L45.91-13.73 45.91 0 41.76 0 41.19-2.3Q39.04 0.3 36.06 0.3L36.06 0.3Q34.99 0.3 34.04 0 33.1-0.3 32.63-0.87L32.63-0.87Q32.36-1.19 32.22-2.51 32.09-3.82 32.09-6.51L32.09-6.51 32.09-13.73 37.19-13.73 37.19-6.57Q37.19-5.97 37.22-5.16 37.25-4.36 37.4-4.15L37.4-4.15Q37.61-3.85 38.6-3.85L38.6-3.85 39.07-3.88Q39.91-3.91 40.81-4.27L40.81-4.27 40.81-13.73ZM56.87-14.03Q57.25-14.03 57.69-13.94 58.12-13.85 58.33-13.73L58.33-13.73Q58.33-13.07 58.18-11.57 58.03-10.06 57.91-9.43L57.91-9.43Q57.61-9.46 56.81-9.46L56.81-9.46Q54.93-9.46 53.46-9.25L53.46-9.25 53.46 0 48.36 0 48.36-13.73 52.63-13.73 53.22-11.52 53.25-11.52Q54.12-12.66 55.1-13.34 56.09-14.03 56.87-14.03L56.87-14.03ZM70.69 0L69.79-3.73 64.84-3.73 63.94 0 58.45 0 63.94-17.01 70.96-17.01 76.21 0 70.69 0ZM67.4-13.34L67.28-13.34 65.52-7.04 69.07-7.04 67.4-13.34ZM86.66-14.03Q88.99-14.03 90.25-12.63 91.52-11.22 91.52-7.67L91.52-7.67Q91.52-5.07 91-3.24 90.48-1.4 89.82-0.9L89.82-0.9Q89.04-0.27 87.52 0.03 86 0.33 84.06 0.33L84.06 0.33Q82.57 0.33 80.72 0.1 78.87-0.12 77.4-0.6L77.4-0.6 77.4-17.91 82.57-18.12 82.57-15.31Q82.57-15.07 82.55-14.21 82.54-13.34 82.48-12.76 82.42-12.18 82.3-11.88L82.3-11.88 82.48-11.67Q83.16-12.72 84.21-13.37 85.25-14.03 86.66-14.03L86.66-14.03ZM85.82-3.25Q86-3.55 86.13-4.66 86.27-5.76 86.27-6.78L86.27-6.78Q86.27-7.97 86.16-8.66 86.06-9.34 85.66-9.75 85.25-10.15 84.42-10.15L84.42-10.15Q83.67-10.15 82.51-9.94L82.51-9.94 82.51-3.19Q83.61-3.01 84.81-3.01L84.81-3.01Q85.67-3.01 85.82-3.25L85.82-3.25ZM96.15-15.43Q95.13-15.43 94.4-16.12 93.67-16.81 93.67-17.76L93.67-17.76Q93.67-18.72 94.4-19.4 95.13-20.09 96.15-20.09L96.15-20.09Q97.16-20.09 97.88-19.4 98.6-18.72 98.6-17.76L98.6-17.76Q98.6-16.81 97.88-16.12 97.16-15.43 96.15-15.43L96.15-15.43ZM93.58 0L93.58-13.73 98.69-13.73 98.69 0 93.58 0Z" transform="translate(-0.24000000953674316, 20.09000015258789)"></path></g>       </g></g> </g></mask></svg>