<svg data-v-0dd9719b="" version="1.0" xmlns="http://www.w3.org/2000/svg" xmlns:xlink="http://www.w3.org/1999/xlink" width="100%" height="100%" viewBox="0 0 59.17548454899476 59.17548454899476" preserveAspectRatio="xMidYMid meet" color-interpolation-filters="sRGB" style="margin: auto;"> <rect data-v-0dd9719b="" x="0" y="0" width="100%" height="100%" fill="#ffffff" fill-opacity="0" class="background"></rect> <!----> <g data-v-0dd9719b="" fill="#edb64a" class="icon-text-wrapper icon-svg-group iconsvg" transform="translate(8.453640406821599, 8.453640406821599)"><g fill="#edb64a" class="iconsvg-imagesvg icon_container"><rect fill="#edb64a" fill-opacity="0" stroke-width="2" x="0" y="0" width="42.268203249281974" height="42.268203249281974" class="image-rect"></rect> <svg viewBox="0 0 60 54.05892422740787" x="0" y="0" width="42.268203249281974" height="42.268203249281974" class="image-svg-svg bn" style="overflow: visible;"><g hollow-target="iconBnOutline"><g mask="url(#49c383f5-2b35-4c38-af5e-6dfbd644ff3c)"><svg viewBox="0 0 65 58.564" xmlns="http://www.w3.org/2000/svg" style="overflow: visible;" width="60" height="54.05892422740787" x="0" y="0" filtersec="colorsf5926122761" filter="url(#JGf0mbm6-dTLh87gLhr8R)"><g transform="scale(1, 1) skewX(0)"><path d="M32.5 0L65 58.564H0L32.5 0zm0 6.183L5.096 55.564h54.807L32.5 6.183z" fill="#000" fill-rule="nonzero"></path></g><defs><filter id="JGf0mbm6-dTLh87gLhr8R"><feColorMatrix type="matrix" values="0 0 0 0 0.92578125  0 0 0 0 0.7109375  0 0 0 0 0.2890625  0 0 0 1 0"></feColorMatrix></filter></defs></svg></g> <g filter="url(#colors5077162948)"><svg xmlns="http://www.w3.org/2000/svg" data-name="Layer 1" viewBox="18 18.198766708374023 64 63.593902587890625" x="10" y="9.009822113703937" width="40" height="36.03928" class="image-svg-icon"><path d="M26.89,21.37a19.87,19.87,0,0,0-5.52,5.52C18,31.93,18,38,18,50s0,18.07,3.37,23.11a19.87,19.87,0,0,0,5.52,5.52c2.72,1.82,6,2.75,10.81,3.12H38a4,4,0,0,0,.3-8c-3.38-.25-5.47-.79-7-1.79A12.13,12.13,0,0,1,28,68.67c-2-3-2-8.26-2-18.67s0-15.64,2-18.67A12.13,12.13,0,0,1,31.33,28c1.5-1,3.59-1.54,7-1.79a4,4,0,1,0-.6-8C32.85,18.62,29.61,19.55,26.89,21.37Z"></path><path d="M73.11,21.37c-2.72-1.82-6-2.75-10.81-3.12a4,4,0,1,0-.6,8c3.38.25,5.47.79,7,1.79A12.13,12.13,0,0,1,72,31.33c2,3,2,8.26,2,18.67s0,15.64-2,18.67A12.13,12.13,0,0,1,68.67,72c-1.5,1-3.59,1.54-7,1.79a4,4,0,0,0,.3,8h.3c4.85-.37,8.09-1.3,10.81-3.12a19.87,19.87,0,0,0,5.52-5.52C82,68.07,82,62,82,50s0-18.07-3.37-23.11A19.87,19.87,0,0,0,73.11,21.37Z"></path><path d="M46,45.16l-5.71-1.95a4,4,0,1,0-2.58,7.58l5.76,2-3.66,4.84a4,4,0,1,0,6.38,4.82l3.81-5,3.81,5A4,4,0,0,0,57,64a4,4,0,0,0,3.19-6.41l-3.66-4.84,5.76-2a4,4,0,0,0-2.58-7.58L54,45.16V39a4,4,0,0,0-8,0Z"></path></svg></g></g><mask id="49c383f5-2b35-4c38-af5e-6dfbd644ff3c"><g fill="white"><svg viewBox="0 0 65 58.564" xmlns="http://www.w3.org/2000/svg" style="overflow: visible;" width="60" height="54.05892422740787" x="0" y="0" filtersec="colorsf5926122761"><g transform="scale(1, 1) skewX(0)"><path d="M32.5 0L65 58.564H0L32.5 0zm0 6.183L5.096 55.564h54.807L32.5 6.183z" fill-rule="nonzero"></path></g><defs></defs></svg></g> <g fill="black" filter="url(#b240ae2a-8ddb-4c0d-b3e4-fd28aa8361a1)"><svg xmlns="http://www.w3.org/2000/svg" data-name="Layer 1" viewBox="18 18.198766708374023 64 63.593902587890625" x="10" y="9.009822113703937" width="40" height="36.03928" class="image-svg-icon"><path d="M26.89,21.37a19.87,19.87,0,0,0-5.52,5.52C18,31.93,18,38,18,50s0,18.07,3.37,23.11a19.87,19.87,0,0,0,5.52,5.52c2.72,1.82,6,2.75,10.81,3.12H38a4,4,0,0,0,.3-8c-3.38-.25-5.47-.79-7-1.79A12.13,12.13,0,0,1,28,68.67c-2-3-2-8.26-2-18.67s0-15.64,2-18.67A12.13,12.13,0,0,1,31.33,28c1.5-1,3.59-1.54,7-1.79a4,4,0,1,0-.6-8C32.85,18.62,29.61,19.55,26.89,21.37Z"></path><path d="M73.11,21.37c-2.72-1.82-6-2.75-10.81-3.12a4,4,0,1,0-.6,8c3.38.25,5.47.79,7,1.79A12.13,12.13,0,0,1,72,31.33c2,3,2,8.26,2,18.67s0,15.64-2,18.67A12.13,12.13,0,0,1,68.67,72c-1.5,1-3.59,1.54-7,1.79a4,4,0,0,0,.3,8h.3c4.85-.37,8.09-1.3,10.81-3.12a19.87,19.87,0,0,0,5.52-5.52C82,68.07,82,62,82,50s0-18.07-3.37-23.11A19.87,19.87,0,0,0,73.11,21.37Z"></path><path d="M46,45.16l-5.71-1.95a4,4,0,1,0-2.58,7.58l5.76,2-3.66,4.84a4,4,0,1,0,6.38,4.82l3.81-5,3.81,5A4,4,0,0,0,57,64a4,4,0,0,0,3.19-6.41l-3.66-4.84,5.76-2a4,4,0,0,0-2.58-7.58L54,45.16V39a4,4,0,0,0-8,0Z"></path></svg></g><defs><filter id="b240ae2a-8ddb-4c0d-b3e4-fd28aa8361a1"><feGaussianBlur in="SourceGraphic" stdDeviation="1.26"></feGaussianBlur><feComponentTransfer><feFuncA type="discrete" tableValues="0 1 1 1 1 1 1 1 1 1 1 1 1 1 0"></feFuncA></feComponentTransfer></filter></defs></mask></svg> <defs><filter id="colors5077162948"><feColorMatrix type="matrix" values="0 0 0 0 0.92578125  0 0 0 0 0.7109375  0 0 0 0 0.2890625  0 0 0 1 0" class="icon-fecolormatrix"></feColorMatrix></filter> <filter id="colorsf5926122761"><feColorMatrix type="matrix" values="0 0 0 0 0.99609375  0 0 0 0 0.99609375  0 0 0 0 0.99609375  0 0 0 1 0" class="icon-fecolormatrix"></feColorMatrix></filter> <filter id="colorsb2767850535"><feColorMatrix type="matrix" values="0 0 0 0 0  0 0 0 0 0  0 0 0 0 0  0 0 0 1 0" class="icon-fecolormatrix"></feColorMatrix></filter></defs></g> <g transform="translate(21.13410186767578,49.26820373535156)"><g data-gra="path-name" fill-rule="" class="tp-name iconsvg-namesvg"><g transform="scale(1)"><g><path d="" transform="translate(0, 0)"></path></g></g></g> <!----></g></g><defs v-gra="od"></defs></svg>