<?xml version="1.0" encoding="utf-8"?>
<!-- Generator: Adobe Illustrator 16.0.2, SVG Export Plug-In . SVG Version: 6.00 Build 0)  -->
<!DOCTYPE svg PUBLIC "-//W3C//DTD SVG 1.1//EN" "http://www.w3.org/Graphics/SVG/1.1/DTD/svg11.dtd">
<svg version="1.1" id="Layer_1" xmlns="http://www.w3.org/2000/svg" xmlns:xlink="http://www.w3.org/1999/xlink" x="0px" y="0px"
	 width="336.6px" height="65.269px" viewBox="0 0 336.6 65.269" enable-background="new 0 0 336.6 65.269" xml:space="preserve">
<g transform="translate(0,0)">
	<g transform="translate(0, 3.611200687856325)">
		<g transform="scale(1)">
			<g>
				<path fill="#FFFFFF" d="M58.985,56.319c-3.664,0-7.004-0.825-9.928-2.453c-2.934-1.617-5.268-3.945-6.935-6.919
					c-1.668-2.973-2.513-6.454-2.513-10.35c0-3.885,0.87-7.362,2.588-10.335c1.707-2.974,4.086-5.307,7.071-6.935
					c2.972-1.617,6.332-2.437,9.987-2.437s7.015,0.819,9.985,2.437c2.975,1.627,5.354,3.96,7.072,6.935
					c1.718,2.973,2.588,6.45,2.588,10.335c0,3.896-0.891,7.379-2.649,10.352c-1.768,2.973-4.182,5.301-7.176,6.918
					C66.085,55.494,62.689,56.319,58.985,56.319z M59.12,25.448c-2.699,0-4.995,0.973-6.824,2.892
					c-1.82,1.918-2.743,4.696-2.743,8.258c0,3.57,0.903,6.354,2.684,8.274c1.769,1.907,4.039,2.875,6.749,2.875
					c1.711,0,3.342-0.422,4.847-1.253c1.511-0.83,2.733-2.099,3.634-3.771c0.901-1.662,1.358-3.724,1.358-6.126
					c0-3.561-0.948-6.339-2.817-8.258C64.138,26.422,61.821,25.448,59.12,25.448z M100.759,56.184c-2.984,0-5.655-0.638-7.938-1.895
					c-2.295-1.269-4.123-3.151-5.432-5.598c-1.308-2.451-1.97-5.411-1.97-8.796V17.609c0-0.056,0.044-0.1,0.1-0.1h9.607
					c0.056,0,0.1,0.044,0.1,0.1v20.917c0,2.972,0.752,5.289,2.233,6.889c1.489,1.598,3.542,2.408,6.101,2.408
					c2.608,0,4.687-0.811,6.176-2.408c1.481-1.599,2.232-3.917,2.232-6.889V17.609c0-0.056,0.044-0.1,0.1-0.1h9.668
					c0.056,0,0.1,0.044,0.1,0.1v37.993c0,0.056-0.044,0.1-0.1,0.1h-9.668c-0.056,0-0.1-0.044-0.1-0.1v-4.51
					c-1.216,1.542-2.793,2.78-4.691,3.682C105.284,55.71,103.092,56.184,100.759,56.184z M131.208,55.701
					c-0.056,0-0.1-0.044-0.1-0.1V17.609c0-0.056,0.044-0.1,0.1-0.1h9.592c0.056,0,0.1,0.044,0.1,0.1v5.542
					c1.215-1.875,2.794-3.378,4.7-4.47c1.994-1.147,4.306-1.729,6.87-1.729c0.056,0,0.1,0.044,0.1,0.1v10.089
					c0,0.056-0.044,0.1-0.1,0.1h-2.545c-2.971,0-5.243,0.706-6.754,2.097c-1.507,1.39-2.271,3.857-2.271,7.336v18.929
					c0,0.056-0.044,0.1-0.1,0.1H131.208z M12.755,55.701c-0.056,0-0.1-0.044-0.1-0.1V15.585H0c-0.056,0-0.1-0.044-0.1-0.1V7.73
					c0-0.056,0.044-0.1,0.1-0.1h35.117c0.056,0,0.1,0.044,0.1,0.1v7.756c0,0.056-0.044,0.1-0.1,0.1H22.462v40.017
					c0,0.056-0.044,0.1-0.1,0.1H12.755z"/>
				<path d="M35.117,7.73v7.756H22.362v40.116h-9.607V15.485H0V7.73H35.117 M59.257,16.991c3.654,0,6.967,0.808,9.938,2.425
					c2.973,1.626,5.316,3.925,7.033,6.896s2.575,6.4,2.575,10.285c0,3.896-0.878,7.329-2.636,10.301
					c-1.767,2.971-4.146,5.265-7.138,6.881c-2.991,1.627-6.34,2.44-10.044,2.44c-3.664,0-6.957-0.813-9.879-2.44
					c-2.932-1.616-5.23-3.91-6.896-6.881c-1.667-2.972-2.5-6.405-2.5-10.301c0-3.885,0.858-7.313,2.575-10.285
					c1.706-2.972,4.051-5.271,7.032-6.896C52.289,17.799,55.603,16.991,59.257,16.991 M58.985,47.847
					c1.736,0,3.368-0.422,4.895-1.265c1.535-0.844,2.76-2.113,3.674-3.811c0.914-1.687,1.37-3.744,1.37-6.174
					c0-3.604-0.948-6.38-2.846-8.327c-1.897-1.948-4.217-2.922-6.958-2.922c-2.74,0-5.039,0.974-6.896,2.922
					c-1.848,1.947-2.771,4.723-2.771,8.327c0,3.614,0.903,6.395,2.71,8.343C53.96,46.878,56.234,47.847,58.985,47.847
					 M152.47,17.052v10.089h-2.545c-3.012,0-5.285,0.708-6.821,2.123c-1.536,1.416-2.304,3.886-2.304,7.409v18.929h-9.592V17.609
					h9.592v5.888c1.234-2.008,2.852-3.584,4.85-4.729C147.637,17.624,149.91,17.052,152.47,17.052 M121.735,17.609v37.993h-9.668
					v-4.804c-1.234,1.646-2.846,2.941-4.834,3.886c-1.987,0.934-4.146,1.4-6.475,1.4c-2.982,0-5.612-0.628-7.891-1.883
					c-2.289-1.265-4.086-3.117-5.392-5.557c-1.306-2.449-1.958-5.365-1.958-8.749V17.609h9.607v20.917
					c0,3.012,0.754,5.331,2.26,6.957c1.516,1.626,3.573,2.439,6.174,2.439c2.65,0,4.733-0.813,6.249-2.439
					c1.506-1.626,2.259-3.945,2.259-6.957V17.609H121.735 M35.117,7.529H0c-0.11,0-0.2,0.09-0.2,0.2v7.756c0,0.11,0.09,0.2,0.2,0.2
					h12.555v39.916c0,0.11,0.09,0.2,0.2,0.2h9.607c0.11,0,0.2-0.09,0.2-0.2V15.686h12.555c0.11,0,0.2-0.09,0.2-0.2V7.73
					C35.317,7.619,35.228,7.529,35.117,7.529L35.117,7.529z M59.257,16.791c-3.673,0-7.049,0.824-10.035,2.449
					c-3.001,1.637-5.394,3.982-7.11,6.973c-1.726,2.988-2.602,6.482-2.602,10.385c0,3.912,0.85,7.411,2.525,10.398
					c1.678,2.99,4.024,5.332,6.975,6.958c2.938,1.636,6.294,2.466,9.976,2.466c3.721,0,7.133-0.829,10.14-2.465
					c3.01-1.626,5.437-3.966,7.214-6.954c1.768-2.988,2.664-6.488,2.664-10.403c0-3.902-0.876-7.396-2.603-10.385
					c-1.728-2.991-4.12-5.337-7.11-6.973C66.305,17.615,62.929,16.791,59.257,16.791L59.257,16.791z M58.985,47.647
					c-2.681,0-4.927-0.956-6.676-2.842c-1.763-1.901-2.656-4.662-2.656-8.207c0-3.535,0.913-6.29,2.716-8.189
					c1.809-1.897,4.08-2.859,6.751-2.859c2.673,0,4.966,0.963,6.814,2.861c1.851,1.899,2.789,4.654,2.789,8.188
					c0,2.386-0.453,4.431-1.346,6.078c-0.891,1.654-2.101,2.91-3.595,3.73C62.293,47.23,60.679,47.647,58.985,47.647L58.985,47.647z
					 M152.47,16.852c-2.582,0-4.911,0.586-6.92,1.742c-1.825,1.046-3.353,2.465-4.55,4.225v-5.21c0-0.11-0.09-0.2-0.2-0.2h-9.592
					c-0.11,0-0.2,0.09-0.2,0.2v37.993c0,0.11,0.09,0.2,0.2,0.2h9.592c0.11,0,0.2-0.09,0.2-0.2V36.673
					c0-3.449,0.753-5.893,2.239-7.262c1.491-1.374,3.74-2.07,6.686-2.07h2.545c0.11,0,0.2-0.09,0.2-0.2V17.052
					C152.67,16.942,152.58,16.852,152.47,16.852L152.47,16.852z M121.735,17.408h-9.668c-0.11,0-0.2,0.09-0.2,0.2v20.917
					c0,2.946-0.742,5.241-2.205,6.821c-1.47,1.576-3.522,2.375-6.103,2.375c-2.53,0-4.558-0.799-6.027-2.376
					c-1.464-1.58-2.206-3.875-2.206-6.82V17.609c0-0.11-0.09-0.2-0.2-0.2h-9.607c-0.11,0-0.2,0.09-0.2,0.2v22.287
					c0,3.401,0.667,6.377,1.981,8.843c1.319,2.464,3.16,4.36,5.472,5.638c2.298,1.267,4.985,1.908,7.987,1.908
					c2.348,0,4.555-0.478,6.56-1.42c1.822-0.865,3.35-2.037,4.549-3.489v4.227c0,0.11,0.09,0.2,0.2,0.2h9.668
					c0.11,0,0.2-0.09,0.2-0.2V17.609C121.936,17.498,121.846,17.408,121.735,17.408L121.735,17.408z"/>
			</g>
		</g>
	</g>
	<g transform="translate(104.25, 0)">
		<g>
			<g>
				<g>
					<rect x="52.737" fill="#C49A31" fill-opacity="0" width="65.753" height="65.269"/>
					<path fill="#C49A31" d="M61.976,47.069c-0.565,0.506-1.113,1.031-1.646,1.573c-0.154,0.157-0.305,0.32-0.458,0.48
						c-0.39,0.412-0.771,0.833-1.145,1.265c-0.161,0.188-0.327,0.371-0.486,0.561c-0.438,0.529-0.862,1.074-1.272,1.631
						c-0.187,0.252-0.367,0.511-0.548,0.769c-0.289,0.411-0.567,0.832-0.842,1.258c-0.145,0.225-0.294,0.446-0.435,0.676
						c-0.006,0.013-0.014,0.023-0.021,0.036c-0.003,0.005-0.003,0.011-0.006,0.016c-0.889,1.464-1.689,2.996-2.379,4.603
						l1.982,0.849c0.238-0.558,0.51-1.097,0.775-1.638l0.771,4.625c0.085,0.519,0.534,0.899,1.062,0.899h4.312
						c0.138,0,0.272-0.025,0.401-0.076l5.121-2.049l7.259,1.037c0.495,0.073,0.97-0.205,1.153-0.666l2.024-5.063l8.324-5.202
						c0.27-0.168,0.45-0.447,0.495-0.763l1.078-7.545c0.079-0.546-0.27-1.063-0.805-1.198l-4.145-1.036l-2.545-1.605
						c0.177-0.033,0.354-0.069,0.531-0.1c0.569-0.098,1.14-0.18,1.713-0.25c0.277-0.033,0.555-0.065,0.834-0.093
						c0.566-0.055,1.135-0.094,1.702-0.12c0.294-0.015,0.59-0.026,0.886-0.032c0.589-0.014,1.178-0.011,1.768,0.005
						c0.217,0.007,0.436,0.012,0.652,0.022c0.016,0.001,0.031,0.001,0.047,0.003c0.602,0.028,1.203,0.079,1.803,0.14
						c0.232,0.023,0.464,0.042,0.694,0.071c0.597,0.072,1.188,0.169,1.782,0.272c0.233,0.041,0.471,0.073,0.703,0.12
						c0.615,0.12,1.224,0.27,1.832,0.423c0.781,0.2,1.553,0.424,2.314,0.676c0.334,0.111,0.666,0.228,0.997,0.349
						c0.438,0.16,0.876,0.325,1.308,0.503c0.332,0.138,0.658,0.285,0.985,0.433c0.12,0.054,0.237,0.111,0.357,0.166l-3.997,1.143
						c-0.309,0.088-0.563,0.31-0.691,0.603s-0.121,0.629,0.022,0.916l0.731,1.46l-3.762,3.762c-0.422,0.422-0.422,1.104,0,1.524
						l4.311,4.312c0.229,0.229,0.543,0.346,0.869,0.311c0.321-0.031,0.611-0.206,0.79-0.475l3.99-5.987h2.657v3.686l-7.002,4.001
						c-0.083,0.047-0.16,0.105-0.228,0.173l-2.155,2.156c-0.363,0.363-0.421,0.933-0.135,1.36l2.155,3.233l1.794-1.195l-1.666-2.499
						l1.43-1.429l7.42-4.24c0.335-0.19,0.542-0.548,0.542-0.935v-5.39c0-0.595-0.483-1.077-1.077-1.077h-4.313
						c-0.359,0-0.695,0.18-0.896,0.479l-3.582,5.373l-2.619-2.619l3.549-3.55c0.328-0.327,0.41-0.828,0.203-1.243l-0.498-0.994
						l4.955-1.415c0.043,0.024,0.087,0.045,0.129,0.07c0.164,0.097,0.32,0.204,0.484,0.304c0.524,0.318,1.046,0.644,1.555,0.99
						c0.465,0.318,0.918,0.65,1.365,0.988c0.119,0.091,0.243,0.173,0.361,0.265c3.662,2.849,6.725,6.412,8.996,10.497l0.004-0.003
						c0.002,0.003,0.002,0.004,0.004,0.006l1.884-1.047c-1.244-2.239-2.708-4.313-4.347-6.206c-0.031-0.034-0.064-0.066-0.094-0.103
						c-0.514-0.587-1.041-1.158-1.588-1.709c-0.117-0.118-0.24-0.227-0.357-0.343c-0.47-0.459-0.943-0.913-1.434-1.346
						c-0.188-0.163-0.383-0.317-0.572-0.479c-0.436-0.368-0.871-0.735-1.323-1.082c-0.245-0.188-0.501-0.365-0.751-0.549
						c-0.017-0.012-0.031-0.022-0.048-0.034l2.071-4.974l3.223-6.981l3.226-6.45c0.132-0.263,0.149-0.569,0.051-0.847
						c-0.099-0.276-0.309-0.501-0.577-0.62l-0.292-0.13l1.896-3.793c0.244-0.485,0.087-1.077-0.365-1.378l-3.234-2.156l-3.233-2.155
						c-0.257-0.173-0.577-0.226-0.875-0.145c-0.299,0.078-0.549,0.283-0.688,0.56l-2.527,5.056l-0.381-0.169
						c-0.529-0.235-1.145-0.013-1.402,0.502l-3.234,6.468l-3.232,6.467c-0.006,0.011-0.005,0.021-0.01,0.032
						c-0.004,0.01-0.014,0.017-0.017,0.024l-1.823,4.255l-1.515-8.333c-0.094-0.513-0.54-0.886-1.061-0.886h-1.343l-1.934-6.764
						c-0.131-0.463-0.555-0.781-1.035-0.781h-0.165L87.492,9.523c-0.005-0.035-0.024-0.063-0.034-0.097
						c0.668-0.366,1.127-1.066,1.127-1.882V5.39c0-1.188-0.967-2.156-2.155-2.156V0h-2.155v3.233c-1.189,0-2.156,0.968-2.156,2.156
						v2.155c0,0.815,0.459,1.516,1.127,1.884c-0.01,0.033-0.029,0.061-0.035,0.096l-2.005,12.033H81.04
						c-0.48,0-0.904,0.318-1.035,0.781l-1.934,6.764h-1.342c-0.521,0-0.968,0.373-1.062,0.885l-1.553,8.541l-3.931-9.827
						l-4.313-10.778c-0.005-0.014-0.018-0.023-0.024-0.038c-0.045-0.101-0.106-0.192-0.181-0.276
						c-0.018-0.02-0.033-0.04-0.051-0.059c-0.011-0.01-0.018-0.022-0.028-0.032l-9.7-8.623c-0.305-0.271-0.736-0.346-1.117-0.195
						c-0.379,0.152-0.641,0.505-0.674,0.912L53.02,22.546c-0.001,0.014,0.002,0.028,0.002,0.042
						c-0.001,0.025,0.003,0.052,0.003,0.077c0.004,0.112,0.023,0.223,0.06,0.326c0.005,0.015,0.002,0.03,0.009,0.044l4.311,10.778
						l5.114,12.784c-0.081,0.07-0.162,0.14-0.243,0.211C62.176,46.896,62.074,46.98,61.976,47.069z M79.726,38.34
						c1.322-1.723,3.387-2.771,5.626-2.771c2.071,0,3.997,0.902,5.321,2.407c-0.105-0.012-0.21-0.015-0.314-0.025
						c-0.307-0.032-0.611-0.063-0.918-0.088c-0.378-0.031-0.758-0.056-1.137-0.074c-0.199-0.011-0.4-0.026-0.598-0.033
						c-0.212-0.007-0.423-0.005-0.635-0.008c-0.214-0.005-0.426-0.023-0.642-0.023c-0.206,0-0.409,0.02-0.614,0.023
						c-0.096,0.002-0.191-0.003-0.286,0c-0.375,0.008-0.748,0.031-1.122,0.052c-0.379,0.021-0.759,0.041-1.137,0.073
						c-0.17,0.015-0.341,0.027-0.512,0.045c-0.351,0.035-0.701,0.084-1.051,0.129c-0.313,0.04-0.627,0.074-0.938,0.122
						c-0.169,0.026-0.337,0.062-0.507,0.091C80.085,38.29,79.904,38.306,79.726,38.34z M81.856,44.16l3.368,0.842l-0.87,6.086
						l-8.197,5.123c-0.193,0.122-0.345,0.302-0.43,0.515l-1.841,4.604l-6.706-0.958c-0.189-0.027-0.379-0.005-0.554,0.065
						l-5.194,2.079h-3.191l-1.068-6.415c0.012-0.019,0.023-0.036,0.035-0.055c0.332-0.528,0.682-1.045,1.039-1.553
						c0.17-0.241,0.344-0.479,0.52-0.716c0.336-0.452,0.682-0.896,1.039-1.331c0.164-0.199,0.332-0.396,0.5-0.592
						c0.374-0.435,0.759-0.86,1.153-1.274c0.144-0.15,0.286-0.303,0.433-0.45c0.5-0.507,1.014-1,1.543-1.475
						c0.076-0.067,0.155-0.134,0.232-0.2c0.351-0.309,0.717-0.6,1.08-0.894c0.547-0.442,1.106-0.863,1.676-1.27
						c0.186-0.133,0.369-0.269,0.558-0.396c0.597-0.408,1.208-0.79,1.826-1.159c0.163-0.097,0.322-0.201,0.487-0.296
						c0.762-0.437,1.539-0.846,2.334-1.223c0.06-0.028,0.12-0.056,0.181-0.084c0.798-0.374,1.612-0.718,2.44-1.03
						c0.438-0.165,0.883-0.309,1.328-0.455c0.49-0.163,0.986-0.312,1.484-0.451l4.482,2.829
						C81.64,44.087,81.745,44.132,81.856,44.16z M98.306,39.696l1.598-3.729l7.778,3.889l-1.517,3.642
						c-0.232-0.148-0.471-0.28-0.705-0.423c-0.236-0.144-0.473-0.287-0.711-0.427c-0.096-0.055-0.188-0.114-0.281-0.168
						c-0.027-0.015-0.053-0.033-0.079-0.049c-0.001,0-0.003,0-0.003-0.001c-0.373-0.21-0.754-0.402-1.133-0.598
						c-0.164-0.086-0.326-0.174-0.492-0.257c-0.631-0.314-1.27-0.61-1.916-0.888c-0.055-0.024-0.107-0.05-0.162-0.072
						C99.9,40.284,99.11,39.973,98.306,39.696z M113.706,23.878l-1.556-0.69l1.644-3.289l1.426,0.951L113.706,23.878z
						 M110.561,17.742l1.426,0.95l-1.809,3.617l-1.556-0.69L110.561,17.742z M106.135,23.36c0.056,0.06,0.105,0.124,0.177,0.172
						l3.233,2.155l3.233,2.156c0.145,0.097,0.311,0.144,0.48,0.163l-1.463,2.926l-2.576-1.145l-5.152-2.291L106.135,23.36z
						 M103.101,29.428l1.293,0.574l6.467,2.875l-2.309,5.003l-7.742-3.87L103.101,29.428z M84.274,5.39h2.155l0.001,2.155h-2.156
						V5.39z M85.187,10.779h0.33l1.797,10.778h-3.922L85.187,10.779z M81.853,23.713h0.266h6.467h0.266l1.54,5.39H80.313
						L81.853,23.713z M77.628,31.258h1.256h12.936h1.256l1.336,7.347c-0.11-0.024-0.223-0.04-0.332-0.063
						c-0.178-0.038-0.355-0.076-0.535-0.112c-1.581-3.058-4.722-5.016-8.192-5.016c-3.696,0-7.024,2.19-8.49,5.582
						c-0.151,0.041-0.298,0.089-0.448,0.131c-0.076,0.021-0.15,0.037-0.227,0.059L77.628,31.258z M72.397,40.519
						c-0.43,0.177-0.854,0.363-1.273,0.557c-0.144,0.065-0.288,0.129-0.432,0.197c-0.72,0.342-1.428,0.705-2.122,1.091
						c-0.075,0.042-0.147,0.086-0.223,0.128c-0.018,0.01-0.034,0.021-0.054,0.03c-0.028,0.017-0.057,0.033-0.084,0.05
						c-0.615,0.352-1.22,0.721-1.813,1.106c-0.074,0.049-0.15,0.096-0.225,0.145c-0.649,0.431-1.284,0.879-1.904,1.35l-4.462-11.158
						l8.776-3.51l3.978,9.941C72.505,40.468,72.452,40.496,72.397,40.519z M55.495,23.235l8.777-3.511l3.51,8.776l-8.776,3.512
						L55.495,23.235z M56.067,11.938l6.786,6.032l-7.54,3.016L56.067,11.938z"/>
					<path fill="#C49A31" d="M61.639,22.635c-1.782,0-3.233,1.451-3.233,3.234c0,1.782,1.451,3.233,3.233,3.233
						c1.783,0,3.233-1.451,3.233-3.233C64.872,24.086,63.422,22.635,61.639,22.635z M61.639,26.946
						c-0.594,0-1.077-0.483-1.077-1.077c0-0.595,0.483-1.078,1.077-1.078c0.595,0,1.078,0.483,1.078,1.078
						C62.717,26.463,62.233,26.946,61.639,26.946z"/>
				</g>
			</g>
		</g>
	</g>
	<g transform="translate(150.9134864807129, 3.611200687856325)">
		<g transform="scale(1)">
			<g>
				<path fill="#FFFFFF" d="M150.569,56.319c-2.843,0-5.366-0.571-7.501-1.697c-2.025-1.067-3.692-2.458-4.958-4.137v5.116
					c0,0.056-0.044,0.1-0.1,0.1h-9.608c-0.056,0-0.1-0.044-0.1-0.1V4.854c0-0.056,0.044-0.1,0.1-0.1h9.608
					c0.056,0,0.1,0.044,0.1,0.1v17.991c1.224-1.724,2.891-3.144,4.959-4.226c2.183-1.146,4.706-1.728,7.5-1.728
					c3.246,0,6.228,0.811,8.861,2.408c2.635,1.609,4.745,3.918,6.271,6.861c1.536,2.952,2.315,6.418,2.315,10.301
					s-0.778,7.374-2.315,10.377c-1.526,2.993-3.637,5.348-6.271,6.996C156.797,55.484,153.815,56.319,150.569,56.319z
					 M148.024,25.524c-1.71,0-3.345,0.447-4.859,1.328c-1.503,0.88-2.736,2.17-3.667,3.832c-0.92,1.673-1.388,3.663-1.388,5.914
					c0,2.261,0.468,4.256,1.389,5.931c0.93,1.661,2.163,2.951,3.667,3.832c1.513,0.88,3.147,1.326,4.858,1.326
					c1.762,0,3.417-0.457,4.918-1.356c1.513-0.898,2.747-2.203,3.669-3.877c0.931-1.664,1.403-3.68,1.403-5.991
					c0-2.251-0.472-4.23-1.402-5.884c-0.921-1.643-2.155-2.912-3.668-3.772C151.441,25.955,149.786,25.524,148.024,25.524z
					 M174.904,55.701c-0.056,0-0.1-0.044-0.1-0.1V17.609c0-0.056,0.044-0.1,0.1-0.1h9.607c0.056,0,0.1,0.044,0.1,0.1v37.993
					c0,0.056-0.044,0.1-0.1,0.1H174.904z M111.808,55.701c-0.043,0-0.081-0.026-0.095-0.067l-3.125-9.058H89.653l-3.125,9.058
					c-0.014,0.041-0.052,0.067-0.095,0.067H76.344c-0.032,0-0.063-0.016-0.082-0.042s-0.023-0.061-0.012-0.092L93.478,7.62
					c0.014-0.039,0.052-0.065,0.094-0.065h11.174c0.042,0,0.08,0.026,0.094,0.065l17.212,47.947
					c0.012,0.031,0.007,0.065-0.012,0.092s-0.05,0.042-0.082,0.042H111.808z M105.915,38.696l-6.786-19.623l-6.787,19.623H105.915z
					 M179.783,13.176c-1.715,0-3.157-0.551-4.285-1.639c-1.14-1.089-1.717-2.461-1.717-4.078c0-1.627,0.577-3.004,1.717-4.093
					c1.128-1.088,2.57-1.639,4.285-1.639c1.706,0,3.147,0.551,4.286,1.639c1.14,1.088,1.717,2.465,1.717,4.093
					c0,1.618-0.577,2.99-1.717,4.078C182.93,12.625,181.489,13.176,179.783,13.176z"/>
				<path d="M179.783,1.827c1.688,0,3.093,0.537,4.217,1.611c1.125,1.074,1.687,2.414,1.687,4.021c0,1.596-0.562,2.932-1.687,4.006
					c-1.124,1.074-2.529,1.611-4.217,1.611c-1.696,0-3.102-0.537-4.216-1.611c-1.124-1.074-1.687-2.41-1.687-4.006
					c0-1.606,0.563-2.946,1.687-4.021C176.681,2.364,178.087,1.827,179.783,1.827 M138.01,4.854v18.312
					c1.234-1.837,2.937-3.323,5.104-4.457c2.179-1.145,4.664-1.717,7.454-1.717c3.243,0,6.179,0.798,8.81,2.395
					c2.631,1.606,4.709,3.88,6.234,6.821c1.536,2.951,2.305,6.37,2.305,10.255c0,3.886-0.769,7.329-2.305,10.331
					c-1.525,2.991-3.604,5.311-6.234,6.957s-5.566,2.47-8.81,2.47c-2.841,0-5.325-0.563-7.454-1.687
					c-2.118-1.115-3.82-2.565-5.104-4.353v5.421h-9.608V4.854H138.01 M148.024,47.786c1.787,0,3.444-0.456,4.97-1.37
					c1.536-0.913,2.771-2.219,3.705-3.915c0.943-1.687,1.415-3.7,1.415-6.039c0-2.278-0.472-4.257-1.415-5.933
					c-0.935-1.667-2.169-2.937-3.705-3.811c-1.525-0.863-3.183-1.295-4.97-1.295c-1.736,0-3.373,0.447-4.909,1.341
					c-1.525,0.894-2.761,2.184-3.704,3.87c-0.934,1.696-1.4,3.684-1.4,5.963c0,2.289,0.467,4.281,1.4,5.979
					c0.943,1.687,2.179,2.977,3.704,3.87C144.651,47.34,146.288,47.786,148.024,47.786 M104.746,7.654l17.212,47.947h-10.149
					l-3.148-9.125H89.582l-3.148,9.125H76.344L93.572,7.654H104.746 M92.201,38.796h13.854l-6.927-20.028L92.201,38.796
					 M184.511,17.609v37.993h-9.607V17.609H184.511 M179.783,1.627c-1.742,0-3.207,0.562-4.354,1.668
					c-1.159,1.107-1.748,2.509-1.748,4.164c0,1.646,0.589,3.042,1.749,4.15c1.146,1.105,2.611,1.667,4.354,1.667
					c1.732,0,3.197-0.561,4.355-1.667c1.159-1.107,1.748-2.504,1.748-4.15c0-1.656-0.589-3.058-1.749-4.165
					C182.98,2.188,181.515,1.627,179.783,1.627L179.783,1.627z M138.01,4.653h-9.608c-0.11,0-0.2,0.09-0.2,0.2v50.748
					c0,0.11,0.09,0.2,0.2,0.2h9.608c0.11,0,0.2-0.09,0.2-0.2v-4.823c1.251,1.587,2.867,2.908,4.812,3.932
					c2.148,1.135,4.688,1.71,7.547,1.71c3.265,0,6.265-0.842,8.916-2.5c2.649-1.658,4.771-4.025,6.306-7.036
					c1.544-3.017,2.327-6.523,2.327-10.422c0-3.899-0.783-7.381-2.327-10.348c-1.535-2.959-3.657-5.281-6.308-6.899
					c-2.65-1.608-5.649-2.424-8.914-2.424c-2.811,0-5.35,0.586-7.547,1.74c-1.981,1.036-3.598,2.382-4.812,4.006V4.854
					C138.211,4.743,138.121,4.653,138.01,4.653L138.01,4.653z M148.024,47.586c-1.693,0-3.312-0.441-4.809-1.313
					c-1.487-0.871-2.709-2.148-3.63-3.795c-0.912-1.658-1.375-3.637-1.375-5.881c0-2.234,0.463-4.208,1.375-5.866
					c0.921-1.646,2.143-2.923,3.631-3.794c1.498-0.872,3.115-1.313,4.808-1.313c1.744,0,3.384,0.427,4.871,1.269
					c1.496,0.852,2.718,2.108,3.629,3.734c0.923,1.638,1.39,3.602,1.39,5.835c0,2.294-0.467,4.293-1.39,5.941
					c-0.914,1.659-2.136,2.951-3.633,3.841C151.405,47.135,149.768,47.586,148.024,47.586L148.024,47.586z M104.746,7.454H93.572
					c-0.084,0-0.16,0.053-0.188,0.133L76.156,55.534c-0.021,0.062-0.013,0.129,0.025,0.183c0.037,0.053,0.098,0.085,0.163,0.085
					h10.089c0.085,0,0.161-0.055,0.189-0.135l3.102-8.99h18.793l3.102,8.99c0.028,0.08,0.104,0.135,0.189,0.135h10.149
					c0.065,0,0.126-0.032,0.163-0.085c0.038-0.054,0.047-0.121,0.025-0.183L104.934,7.587C104.906,7.507,104.83,7.454,104.746,7.454
					L104.746,7.454z M92.482,38.596l6.646-19.216l6.646,19.216H92.482L92.482,38.596z M184.511,17.408h-9.607
					c-0.11,0-0.2,0.09-0.2,0.2v37.993c0,0.11,0.09,0.2,0.2,0.2h9.607c0.11,0,0.2-0.09,0.2-0.2V17.609
					C184.712,17.498,184.622,17.408,184.511,17.408L184.511,17.408z"/>
			</g>
		</g>
	</g>
</g>
</svg>
