<?xml version="1.0" encoding="utf-8"?>
<!-- Generator: Adobe Illustrator 16.0.2, SVG Export Plug-In . SVG Version: 6.00 Build 0)  -->
<!DOCTYPE svg PUBLIC "-//W3C//DTD SVG 1.1//EN" "http://www.w3.org/Graphics/SVG/1.1/DTD/svg11.dtd">
<svg version="1.1" id="Layer_1" xmlns="http://www.w3.org/2000/svg" xmlns:xlink="http://www.w3.org/1999/xlink" x="0px" y="0px"
	 width="336.6px" height="65.269px" viewBox="0 0 336.6 65.269" enable-background="new 0 0 336.6 65.269" xml:space="preserve">
<rect x="-818.4" y="-536" width="512" height="512"/>
<g>
	<path fill="#149CF4" d="M-751.112-998.934v61.002h26.828v63.078h-26.828c0,12.671,1.996,21.398,5.988,26.189
		s11.311,7.186,21.958,7.186v62.759c-3.089,0.105-5.377,0.16-6.867,0.16c-13.522,0-26.269-3.14-38.246-9.422
		c-11.978-6.28-21.586-14.796-28.824-25.55c-9.157-13.734-13.734-31.938-13.734-54.615v-130.787H-751.112z"/>
	<path fill="#149CF4" d="M-619.367-943.521c22.568,0,41.918,8.12,58.048,24.353c16.128,16.236,24.193,35.691,24.193,58.367
		c0,22.996-8.172,42.585-24.512,58.767c-16.344,16.183-36.065,24.273-59.166,24.273c-23.103,0-42.853-8.117-59.246-24.354
		c-16.396-16.233-24.592-35.795-24.592-58.686c0-23.315,8.197-42.929,24.592-58.846
		C-663.657-935.561-643.428-943.521-619.367-943.521z M-620.964-884.595c-6.388,0-11.817,2.315-16.289,6.946
		c-4.471,4.631-6.707,10.3-6.707,17.007c0,6.602,2.261,12.244,6.787,16.927c4.523,4.686,9.925,7.027,16.208,7.027
		c6.388,0,11.842-2.341,16.369-7.027c4.524-4.684,6.787-10.325,6.787-16.927c0-6.707-2.236-12.376-6.708-17.007
		C-608.987-882.279-614.472-884.595-620.964-884.595z"/>
	<path fill="#149CF4" d="M-512.215-937.932h59.725v89.906c0,9.05,3.778,13.574,11.338,13.574c7.451,0,11.178-4.524,11.178-13.574
		v-89.906h59.725v88.789c0,20.655-6.867,38.086-20.601,52.299c-13.733,14.212-30.556,21.317-50.462,21.317
		c-22.676,0-40.935-8.249-54.773-24.751c-10.754-12.88-16.129-30.766-16.129-53.656V-937.932z"/>
	<path fill="#149CF4" d="M-248.086-941.765v63.877c-4.151-2.34-7.933-3.513-11.338-3.513c-10.858,0-16.288,8.303-16.288,24.912
		v75.534h-59.725v-87.032c0-22.996,6.281-41.333,18.844-55.013c12.561-13.679,29.329-20.521,50.303-20.521
		C-261.606-943.521-255.539-942.934-248.086-941.765z"/>
	<path fill="#C49A31" d="M-147.001-890.344v57.488h-18.684v51.9h-64.835v-138.612c0-26.828,7.318-47.668,21.957-62.519
		c14.638-14.852,35.213-22.277,61.721-22.277c25.551,0,44.447,6.735,56.689,20.201c12.242,13.469,18.366,34.254,18.366,62.36
		v140.847h-64.836v-136.536c0-8.517-1.013-14.425-3.033-17.726c-2.024-3.299-5.644-4.951-10.858-4.951
		c-10.116,0-15.171,7.561-15.171,22.677v27.147H-147.001z"/>
	<path fill="#C49A31" d="M19.237-998.934v130.468c0,21.187,7.609,31.779,22.836,31.779c6.492,0,12.002-2.208,16.528-6.627
		c4.523-4.417,6.787-9.766,6.787-16.049c0-6.493-2.132-11.95-6.388-16.369c-4.26-4.417-9.477-6.627-15.649-6.627
		c-4.368,0-9.369,1.917-15.012,5.75v-65.793c7.026-0.639,12.348-0.958,15.97-0.958c22.462,0,41.704,8.092,57.728,24.272
		c16.021,16.184,24.034,35.667,24.034,58.447c0,23.315-8.145,42.957-24.434,58.926c-16.289,15.968-36.305,23.954-60.044,23.954
		c-11.924,0-23.554-2.61-34.892-7.825c-11.339-5.215-20.681-12.241-28.027-21.08c-12.773-15.33-19.162-35.184-19.162-59.565
		v-132.703H19.237z"/>
	<path fill="#C49A31" d="M211.985-940.167v159.212H152.26v-159.212H211.985z M182.281-1011.23c8.09,0,15.093,2.85,21,8.543
		c5.908,5.697,8.863,12.431,8.863,20.202c0,8.303-2.794,15.118-8.385,20.439c-5.588,5.325-12.75,7.985-21.479,7.985
		c-8.729,0-15.888-2.66-21.479-7.985c-5.588-5.322-8.383-12.136-8.383-20.439c0-7.771,2.955-14.505,8.863-20.202
		C167.191-1008.38,174.191-1011.23,182.281-1011.23z"/>
</g>
<path fill="#C49A31" d="M-695.489-172.859v57.488h-18.684v51.9h-64.835v-138.611c0-26.828,7.318-47.668,21.957-62.52
	c14.638-14.852,35.213-22.277,61.721-22.277c25.551,0,44.447,6.734,56.689,20.201c12.242,13.469,18.366,34.254,18.366,62.359
	v140.848h-64.836v-136.535c0-8.518-1.013-14.426-3.033-17.727c-2.024-3.299-5.644-4.951-10.858-4.951
	c-10.116,0-15.171,7.561-15.171,22.678v27.146H-695.489z"/>
<path fill="#C49A31" d="M-529.25-281.449v130.468c0,21.187,7.609,31.778,22.836,31.778c6.492,0,12.002-2.208,16.528-6.627
	c4.523-4.417,6.787-9.766,6.787-16.049c0-6.492-2.132-11.949-6.388-16.369c-4.26-4.416-9.477-6.627-15.649-6.627
	c-4.368,0-9.369,1.916-15.012,5.75v-65.793c7.026-0.639,12.348-0.959,15.97-0.959c22.462,0,41.704,8.092,57.728,24.273
	c16.021,16.184,24.034,35.666,24.034,58.447c0,23.314-8.145,42.957-24.434,58.926s-36.305,23.953-60.044,23.953
	c-11.924,0-23.554-2.609-34.892-7.824c-11.339-5.215-20.681-12.241-28.027-21.08c-12.773-15.33-19.162-35.184-19.162-59.564
	v-132.703H-529.25z"/>
<path fill="#C49A31" d="M-336.502-222.684v159.213h-59.726v-159.213H-336.502z M-366.207-293.746c8.09,0,15.093,2.85,21,8.544
	c5.908,5.696,8.863,12.431,8.863,20.202c0,8.303-2.794,15.117-8.385,20.439c-5.588,5.324-12.75,7.984-21.479,7.984
	c-8.729,0-15.888-2.66-21.479-7.984c-5.588-5.322-8.383-12.137-8.383-20.439c0-7.771,2.955-14.506,8.863-20.202
	C-381.296-290.896-374.296-293.746-366.207-293.746z"/>
<path fill="#149CF4" d="M-741.905-513.156v49.458h21.751v51.142h-21.751c0,10.272,1.618,17.349,4.855,21.233
	c3.237,3.884,9.17,5.825,17.802,5.825v50.884c-2.505,0.084-4.359,0.129-5.567,0.129c-10.963,0-21.298-2.546-31.008-7.64
	c-9.711-5.091-17.501-11.995-23.37-20.715c-7.424-11.135-11.135-25.895-11.135-44.279v-106.037H-741.905z"/>
<path fill="#149CF4" d="M-635.092-468.23c18.298,0,33.986,6.584,47.063,19.745c13.076,13.164,19.615,28.938,19.615,47.322
	c0,18.644-6.625,34.525-19.874,47.646c-13.251,13.12-29.241,19.679-47.969,19.679c-18.731,0-34.743-6.581-48.034-19.745
	c-13.293-13.161-19.938-29.021-19.938-47.579c0-18.902,6.646-34.806,19.938-47.71C-671-461.775-654.6-468.23-635.092-468.23z
	 M-636.387-420.454c-5.179,0-9.581,1.877-13.206,5.631c-3.625,3.755-5.438,8.352-5.438,13.79c0,5.352,1.833,9.926,5.503,13.724
	c3.667,3.799,8.047,5.696,13.141,5.696c5.179,0,9.601-1.897,13.271-5.696c3.668-3.798,5.503-8.372,5.503-13.724
	c0-5.438-1.813-10.035-5.438-13.79C-626.676-418.577-631.123-420.454-636.387-420.454z"/>
<path fill="#149CF4" d="M-548.217-463.698h48.423v72.893c0,7.336,3.063,11.006,9.192,11.006c6.041,0,9.062-3.67,9.062-11.006
	v-72.893h48.422v71.986c0,16.746-5.567,30.879-16.701,42.402c-11.135,11.522-24.774,17.283-40.913,17.283
	c-18.385,0-33.189-6.688-44.408-20.067c-8.719-10.443-13.077-24.943-13.077-43.502V-463.698z"/>
<path fill="#149CF4" d="M-334.071-466.806v51.789c-3.367-1.898-6.432-2.849-9.192-2.849c-8.804,0-13.207,6.731-13.207,20.198v61.239
	h-48.423v-70.562c0-18.645,5.093-33.511,15.278-44.603c10.185-11.091,23.778-16.639,40.784-16.639
	C-345.034-468.23-340.114-467.753-334.071-466.806z"/>
<g>
	<g>
		<g>
			<g>
				<g>
					<rect x="-26.4" y="-740" opacity="0" fill="#FFFFFF" width="65.752" height="65.269"/>
				</g>
				<path d="M-17.163-692.931c-0.565,0.506-1.114,1.031-1.646,1.573c-0.156,0.157-0.306,0.32-0.459,0.48
					c-0.39,0.412-0.771,0.833-1.145,1.265c-0.162,0.188-0.328,0.371-0.486,0.561c-0.438,0.529-0.861,1.074-1.272,1.631
					c-0.187,0.252-0.366,0.511-0.548,0.769c-0.289,0.411-0.568,0.832-0.842,1.258c-0.145,0.225-0.294,0.446-0.434,0.676
					c-0.007,0.013-0.015,0.023-0.021,0.036c-0.004,0.005-0.004,0.011-0.006,0.016c-0.889,1.464-1.689,2.996-2.379,4.603l1.98,0.849
					c0.24-0.558,0.51-1.097,0.777-1.638l0.77,4.625c0.086,0.519,0.535,0.899,1.063,0.899h4.311c0.137,0,0.273-0.025,0.401-0.076
					l5.121-2.049l7.259,1.037c0.495,0.073,0.969-0.205,1.154-0.667l2.023-5.063l8.324-5.202c0.27-0.169,0.451-0.447,0.496-0.763
					l1.078-7.545c0.078-0.546-0.27-1.063-0.806-1.198l-4.144-1.036l-2.545-1.605c0.176-0.033,0.354-0.069,0.531-0.1
					c0.568-0.098,1.139-0.18,1.713-0.25c0.276-0.033,0.555-0.065,0.834-0.093c0.565-0.055,1.134-0.094,1.701-0.12
					c0.295-0.015,0.59-0.026,0.887-0.032c0.588-0.014,1.177-0.012,1.766,0.005c0.219,0.007,0.436,0.012,0.654,0.022
					c0.015,0.001,0.031,0.001,0.046,0.002c0.602,0.029,1.203,0.08,1.804,0.141c0.231,0.023,0.463,0.042,0.693,0.071
					c0.596,0.072,1.189,0.169,1.782,0.272c0.233,0.041,0.471,0.073,0.704,0.119c0.613,0.121,1.223,0.27,1.832,0.424
					c0.78,0.199,1.552,0.424,2.314,0.676c0.334,0.111,0.666,0.228,0.996,0.349c0.439,0.16,0.875,0.325,1.308,0.503
					c0.332,0.137,0.659,0.285,0.985,0.433c0.119,0.054,0.238,0.11,0.357,0.166l-3.997,1.143c-0.309,0.088-0.562,0.31-0.69,0.603
					c-0.13,0.293-0.121,0.629,0.021,0.916l0.731,1.46l-3.762,3.762c-0.421,0.422-0.421,1.103,0,1.524l4.312,4.312
					c0.229,0.229,0.542,0.346,0.869,0.311c0.32-0.031,0.61-0.206,0.789-0.475l3.99-5.987h2.657v3.686l-7.002,4.001
					c-0.083,0.047-0.159,0.105-0.228,0.173l-2.155,2.156c-0.363,0.363-0.421,0.932-0.135,1.36l2.155,3.233l1.794-1.195l-1.665-2.499
					l1.429-1.429l7.42-4.24c0.335-0.191,0.542-0.548,0.542-0.935v-5.39c0-0.595-0.482-1.077-1.078-1.077h-4.311
					c-0.36,0-0.696,0.18-0.896,0.479l-3.582,5.373l-2.621-2.619l3.551-3.55c0.327-0.327,0.408-0.829,0.202-1.244l-0.497-0.993
					l4.955-1.415c0.042,0.024,0.086,0.045,0.128,0.069c0.165,0.098,0.321,0.205,0.485,0.305c0.523,0.318,1.045,0.644,1.555,0.99
					c0.464,0.318,0.916,0.65,1.363,0.988c0.12,0.091,0.244,0.173,0.363,0.264c3.661,2.85,6.725,6.412,8.995,10.498l0.005-0.003
					c0,0.003,0.002,0.004,0.003,0.006l1.884-1.047c-1.244-2.239-2.707-4.313-4.347-6.206c-0.03-0.034-0.063-0.066-0.094-0.103
					c-0.513-0.587-1.04-1.158-1.588-1.709c-0.116-0.118-0.24-0.227-0.358-0.343c-0.469-0.46-0.941-0.913-1.434-1.346
					c-0.186-0.164-0.381-0.317-0.57-0.479c-0.436-0.368-0.872-0.735-1.324-1.082c-0.246-0.188-0.501-0.365-0.751-0.549
					c-0.017-0.012-0.031-0.022-0.048-0.034l2.072-4.974l3.223-6.982l3.225-6.449c0.132-0.264,0.15-0.569,0.051-0.847
					c-0.1-0.276-0.309-0.501-0.576-0.62l-0.293-0.13l1.896-3.793c0.244-0.486,0.086-1.077-0.367-1.378l-3.232-2.156l-3.234-2.155
					c-0.258-0.173-0.577-0.226-0.875-0.145c-0.299,0.078-0.549,0.283-0.688,0.56l-2.527,5.056l-0.382-0.169
					c-0.529-0.235-1.145-0.013-1.402,0.502l-3.233,6.468l-3.233,6.467c-0.005,0.011-0.005,0.021-0.009,0.032
					c-0.004,0.01-0.014,0.016-0.018,0.024l-1.822,4.255l-1.516-8.333c-0.094-0.513-0.54-0.886-1.061-0.886h-1.343l-1.933-6.764
					c-0.132-0.463-0.555-0.781-1.036-0.781h-0.165l-2.006-12.034c-0.005-0.035-0.024-0.063-0.034-0.097
					c0.669-0.366,1.128-1.066,1.128-1.882v-2.155c0-1.189-0.967-2.156-2.156-2.156V-740H5.135v3.233
					c-1.188,0-2.155,0.967-2.155,2.156v2.155c0,0.815,0.46,1.516,1.126,1.883c-0.008,0.034-0.027,0.062-0.034,0.097l-2.005,12.033
					H1.902c-0.481,0-0.904,0.318-1.036,0.781l-1.933,6.764H-2.41c-0.52,0-0.967,0.373-1.061,0.885l-1.553,8.541l-3.931-9.827
					l-4.312-10.778c-0.006-0.014-0.019-0.023-0.025-0.038c-0.045-0.102-0.105-0.192-0.181-0.276c-0.017-0.02-0.032-0.04-0.051-0.059
					c-0.011-0.01-0.017-0.022-0.028-0.032l-9.7-8.623c-0.306-0.271-0.736-0.346-1.116-0.195c-0.38,0.152-0.641,0.505-0.674,0.912
					l-1.078,12.935c-0.001,0.014,0.002,0.027,0.002,0.042c-0.001,0.025,0.004,0.052,0.004,0.077
					c0.003,0.112,0.022,0.223,0.059,0.326c0.006,0.015,0.002,0.029,0.009,0.044l4.312,10.778l5.113,12.784
					c-0.08,0.07-0.162,0.14-0.242,0.21C-16.963-693.104-17.064-693.02-17.163-692.931z M0.587-701.661
					c1.322-1.722,3.387-2.77,5.626-2.77c2.07,0,3.997,0.902,5.322,2.407c-0.106-0.013-0.211-0.015-0.315-0.025
					c-0.306-0.032-0.61-0.063-0.919-0.088c-0.377-0.031-0.756-0.056-1.135-0.075c-0.2-0.011-0.4-0.025-0.599-0.032
					c-0.212-0.007-0.423-0.005-0.634-0.008c-0.215-0.005-0.427-0.023-0.643-0.023c-0.206,0-0.408,0.02-0.614,0.023
					c-0.095,0.002-0.19-0.003-0.286,0c-0.375,0.008-0.748,0.031-1.121,0.052c-0.38,0.02-0.76,0.04-1.138,0.073
					c-0.171,0.015-0.341,0.027-0.511,0.045c-0.352,0.035-0.701,0.084-1.053,0.129c-0.313,0.04-0.625,0.073-0.938,0.122
					c-0.169,0.026-0.337,0.062-0.506,0.091C0.947-701.71,0.766-701.694,0.587-701.661z M2.718-695.84l3.368,0.842l-0.869,6.086
					l-8.197,5.123c-0.194,0.122-0.346,0.302-0.431,0.515l-1.841,4.604l-6.707-0.959c-0.188-0.026-0.377-0.004-0.553,0.066
					l-5.195,2.079h-3.189l-1.07-6.415c0.013-0.019,0.024-0.036,0.036-0.055c0.332-0.529,0.681-1.045,1.039-1.553
					c0.171-0.241,0.344-0.479,0.52-0.716c0.337-0.453,0.683-0.896,1.039-1.331c0.164-0.199,0.332-0.396,0.5-0.592
					c0.374-0.435,0.759-0.86,1.153-1.274c0.144-0.15,0.287-0.303,0.434-0.45c0.5-0.507,1.014-1,1.543-1.475
					c0.076-0.067,0.154-0.134,0.23-0.2c0.352-0.309,0.719-0.6,1.082-0.894c0.546-0.442,1.105-0.863,1.676-1.27
					c0.186-0.133,0.369-0.269,0.557-0.396c0.597-0.408,1.207-0.791,1.826-1.159c0.164-0.097,0.322-0.201,0.487-0.296
					c0.763-0.438,1.539-0.846,2.335-1.223c0.059-0.028,0.119-0.057,0.18-0.084c0.799-0.374,1.612-0.718,2.441-1.03
					c0.437-0.165,0.883-0.309,1.326-0.455c0.492-0.163,0.988-0.312,1.486-0.452l4.482,2.83
					C2.501-695.913,2.607-695.868,2.718-695.84z M19.167-700.304l1.599-3.729l7.777,3.889l-1.517,3.642
					c-0.231-0.149-0.471-0.28-0.704-0.423c-0.236-0.144-0.473-0.288-0.712-0.427c-0.095-0.055-0.187-0.114-0.281-0.168
					c-0.027-0.016-0.052-0.033-0.079-0.049c-0.001,0-0.002,0-0.003-0.001c-0.373-0.21-0.753-0.402-1.133-0.598
					c-0.164-0.086-0.325-0.174-0.491-0.257c-0.631-0.314-1.27-0.61-1.917-0.889c-0.054-0.023-0.107-0.049-0.161-0.072
					C20.762-699.716,19.973-700.027,19.167-700.304z M34.566-716.122l-1.555-0.691l1.644-3.288l1.427,0.95L34.566-716.122z
					 M31.422-722.259l1.426,0.951l-1.809,3.617l-1.555-0.691L31.422-722.259z M26.996-716.64c0.057,0.06,0.105,0.124,0.177,0.172
					l3.233,2.155l3.234,2.155c0.145,0.098,0.311,0.145,0.479,0.164l-1.462,2.926l-2.576-1.145l-5.151-2.291L26.996-716.64z
					 M23.962-710.572l1.294,0.574l6.467,2.875l-2.311,5.003l-7.742-3.87L23.962-710.572z M5.135-734.61h2.156l0.001,2.155H5.135
					V-734.61z M6.049-729.222h0.329l1.797,10.779H4.252L6.049-729.222z M2.715-716.287h0.265h6.468h0.265l1.54,5.39H1.176
					L2.715-716.287z M-1.511-708.742h1.257H12.68h1.258l1.335,7.347c-0.11-0.024-0.222-0.04-0.332-0.063
					c-0.178-0.038-0.355-0.076-0.534-0.112c-1.582-3.058-4.723-5.017-8.193-5.017c-3.695,0-7.023,2.191-8.49,5.583
					c-0.15,0.041-0.299,0.089-0.448,0.131c-0.075,0.021-0.151,0.037-0.226,0.059L-1.511-708.742z M-6.742-699.481
					c-0.428,0.177-0.852,0.363-1.272,0.557c-0.144,0.065-0.288,0.129-0.431,0.197c-0.721,0.342-1.428,0.705-2.123,1.091
					c-0.074,0.042-0.146,0.086-0.223,0.128c-0.018,0.01-0.035,0.021-0.053,0.03c-0.029,0.016-0.057,0.033-0.085,0.05
					c-0.616,0.352-1.22,0.721-1.812,1.106c-0.074,0.049-0.151,0.096-0.227,0.145c-0.648,0.43-1.283,0.879-1.902,1.35l-4.463-11.158
					l8.777-3.511l3.977,9.942C-6.634-699.532-6.687-699.504-6.742-699.481z M-23.643-716.765l8.776-3.511l3.511,8.776l-8.777,3.512
					L-23.643-716.765z M-23.07-728.062l6.785,6.031l-7.54,3.017L-23.07-728.062z"/>
				<path d="M-17.5-717.365c-1.782,0-3.232,1.451-3.232,3.233c0,1.783,1.45,3.234,3.232,3.234c1.783,0,3.234-1.451,3.234-3.234
					C-14.266-715.914-15.717-717.365-17.5-717.365z M-17.5-713.054c-0.594,0-1.077-0.483-1.077-1.078
					c0-0.594,0.483-1.077,1.077-1.077s1.078,0.483,1.078,1.077C-16.422-713.537-16.906-713.054-17.5-713.054z"/>
			</g>
		</g>
	</g>
</g>
<rect x="669.6" y="-704" fill="#0D0821" width="512" height="512"/>
<rect x="-26.4" y="-740" fill="none" width="512" height="512"/>
<g transform="translate(0,0)">
	<g transform="translate(0, 3.611200687856325)">
		<g transform="scale(1)">
			<path fill="#FFFFFF" d="M689.3-635.328h35.117v7.756h-12.755v40.116h-9.607v-40.116H689.3V-635.328z M748.285-586.838
				c-3.664,0-6.957-0.813-9.879-2.44c-2.932-1.616-5.23-3.91-6.896-6.881c-1.667-2.972-2.5-6.405-2.5-10.301l0,0
				c0-3.885,0.858-7.313,2.575-10.285c1.706-2.972,4.051-5.271,7.032-6.896c2.972-1.617,6.285-2.425,9.939-2.425l0,0
				c3.654,0,6.967,0.808,9.938,2.425c2.973,1.626,5.316,3.925,7.033,6.896s2.575,6.4,2.575,10.285l0,0
				c0,3.896-0.878,7.329-2.636,10.301c-1.767,2.971-4.146,5.265-7.138,6.881C755.338-587.651,751.989-586.838,748.285-586.838
				L748.285-586.838z M748.285-595.211c1.736,0,3.368-0.422,4.895-1.265c1.535-0.844,2.76-2.113,3.674-3.811
				c0.914-1.687,1.37-3.744,1.37-6.174l0,0c0-3.604-0.948-6.38-2.846-8.327c-1.897-1.948-4.217-2.922-6.958-2.922l0,0
				c-2.74,0-5.039,0.974-6.896,2.922c-1.848,1.947-2.771,4.723-2.771,8.327l0,0c0,3.614,0.903,6.395,2.71,8.343
				C743.26-596.18,745.534-595.211,748.285-595.211L748.285-595.211z M801.367-625.449h9.668v37.993h-9.668v-4.804
				c-1.234,1.646-2.846,2.941-4.834,3.886c-1.987,0.934-4.146,1.4-6.475,1.4l0,0c-2.982,0-5.612-0.628-7.891-1.883
				c-2.289-1.265-4.086-3.117-5.392-5.557c-1.306-2.449-1.958-5.365-1.958-8.749l0,0v-22.287h9.607v20.917
				c0,3.012,0.754,5.331,2.26,6.957c1.516,1.626,3.573,2.439,6.174,2.439l0,0c2.65,0,4.733-0.813,6.249-2.439
				c1.506-1.626,2.259-3.945,2.259-6.957l0,0V-625.449z M830.1-619.561c1.234-2.008,2.852-3.584,4.85-4.729
				c1.987-1.144,4.261-1.716,6.82-1.716l0,0v10.089h-2.545c-3.012,0-5.285,0.708-6.821,2.123c-1.536,1.416-2.304,3.886-2.304,7.409
				l0,0v18.929h-9.592v-37.993h9.592V-619.561z"/>
		</g>
	</g>
	<g transform="translate(104.25, 0)">
		<g>
			<g>
				<g>
					<rect x="742.037" y="-643.058" fill="#C49A31" fill-opacity="0" width="65.753" height="65.269"/>
					<path fill="#C49A31" d="M751.275-595.988c-0.565,0.506-1.113,1.031-1.646,1.573c-0.154,0.157-0.305,0.32-0.458,0.48
						c-0.39,0.412-0.771,0.833-1.145,1.265c-0.161,0.188-0.327,0.371-0.486,0.561c-0.438,0.529-0.862,1.074-1.272,1.631
						c-0.187,0.252-0.367,0.511-0.548,0.769c-0.289,0.411-0.567,0.832-0.842,1.258c-0.145,0.225-0.294,0.446-0.435,0.676
						c-0.006,0.013-0.014,0.023-0.021,0.036c-0.003,0.005-0.003,0.011-0.006,0.016c-0.889,1.464-1.689,2.996-2.379,4.603
						l1.982,0.849c0.238-0.558,0.51-1.097,0.775-1.638l0.771,4.625c0.085,0.519,0.534,0.899,1.062,0.899h4.312
						c0.138,0,0.272-0.025,0.401-0.076l5.121-2.049l7.259,1.037c0.495,0.073,0.97-0.205,1.153-0.666l2.024-5.063l8.324-5.202
						c0.27-0.168,0.45-0.447,0.495-0.763l1.078-7.545c0.079-0.546-0.27-1.063-0.805-1.198l-4.145-1.036l-2.545-1.605
						c0.177-0.033,0.354-0.069,0.531-0.1c0.569-0.098,1.14-0.18,1.713-0.25c0.277-0.033,0.555-0.065,0.834-0.093
						c0.566-0.055,1.135-0.094,1.702-0.12c0.294-0.015,0.59-0.026,0.886-0.032c0.589-0.014,1.178-0.011,1.768,0.005
						c0.217,0.007,0.436,0.012,0.652,0.022c0.016,0.001,0.031,0.001,0.047,0.003c0.602,0.028,1.203,0.079,1.803,0.14
						c0.232,0.023,0.464,0.042,0.694,0.071c0.597,0.072,1.188,0.169,1.782,0.272c0.233,0.041,0.471,0.073,0.703,0.12
						c0.615,0.12,1.224,0.27,1.832,0.423c0.781,0.2,1.553,0.424,2.314,0.676c0.334,0.111,0.666,0.228,0.997,0.349
						c0.438,0.16,0.876,0.325,1.308,0.503c0.332,0.138,0.658,0.285,0.985,0.433c0.12,0.054,0.237,0.111,0.357,0.166l-3.997,1.143
						c-0.309,0.088-0.563,0.31-0.691,0.603s-0.121,0.629,0.022,0.916l0.731,1.46l-3.762,3.762c-0.422,0.422-0.422,1.104,0,1.524
						l4.311,4.312c0.229,0.229,0.543,0.346,0.869,0.311c0.321-0.031,0.611-0.206,0.79-0.475l3.99-5.987h2.657v3.686l-7.002,4.001
						c-0.083,0.047-0.16,0.105-0.228,0.173l-2.155,2.156c-0.363,0.363-0.421,0.933-0.135,1.36l2.155,3.233l1.794-1.195l-1.666-2.499
						l1.43-1.429l7.42-4.24c0.335-0.19,0.542-0.548,0.542-0.935v-5.39c0-0.595-0.483-1.077-1.077-1.077h-4.313
						c-0.359,0-0.695,0.18-0.896,0.479l-3.582,5.373l-2.619-2.619l3.549-3.55c0.328-0.327,0.41-0.828,0.203-1.243l-0.498-0.994
						l4.955-1.415c0.043,0.024,0.087,0.045,0.129,0.07c0.164,0.097,0.32,0.204,0.484,0.304c0.524,0.318,1.046,0.644,1.555,0.99
						c0.465,0.318,0.918,0.65,1.365,0.988c0.119,0.091,0.243,0.173,0.361,0.265c3.662,2.849,6.725,6.412,8.996,10.497l0.004-0.003
						c0.002,0.003,0.002,0.004,0.004,0.006l1.884-1.047c-1.244-2.239-2.708-4.313-4.347-6.206c-0.031-0.034-0.064-0.066-0.094-0.103
						c-0.514-0.587-1.041-1.158-1.588-1.709c-0.117-0.118-0.24-0.227-0.357-0.343c-0.47-0.459-0.943-0.913-1.434-1.346
						c-0.188-0.163-0.383-0.317-0.572-0.479c-0.436-0.368-0.871-0.735-1.323-1.082c-0.245-0.188-0.501-0.365-0.751-0.549
						c-0.017-0.012-0.031-0.022-0.048-0.034l2.071-4.974l3.223-6.981l3.226-6.45c0.132-0.263,0.149-0.569,0.051-0.847
						c-0.099-0.276-0.309-0.501-0.577-0.62l-0.292-0.13l1.896-3.793c0.244-0.485,0.087-1.077-0.365-1.378l-3.234-2.156l-3.233-2.155
						c-0.257-0.173-0.577-0.226-0.875-0.145c-0.299,0.078-0.549,0.283-0.688,0.56l-2.527,5.056l-0.381-0.169
						c-0.529-0.235-1.145-0.013-1.402,0.502l-3.234,6.468l-3.232,6.467c-0.006,0.011-0.005,0.021-0.01,0.032
						c-0.004,0.01-0.014,0.017-0.017,0.024l-1.823,4.255l-1.515-8.333c-0.094-0.513-0.54-0.886-1.061-0.886h-1.343l-1.934-6.764
						c-0.131-0.463-0.555-0.781-1.035-0.781h-0.165l-2.006-12.034c-0.005-0.035-0.024-0.063-0.034-0.097
						c0.668-0.366,1.127-1.066,1.127-1.882v-2.155c0-1.188-0.967-2.156-2.155-2.156v-3.233h-2.155v3.233
						c-1.189,0-2.156,0.968-2.156,2.156v2.155c0,0.815,0.459,1.516,1.127,1.884c-0.01,0.033-0.029,0.061-0.035,0.096l-2.005,12.033
						h-0.165c-0.48,0-0.904,0.318-1.035,0.781l-1.934,6.764h-1.342c-0.521,0-0.968,0.373-1.062,0.885l-1.553,8.541l-3.931-9.827
						l-4.313-10.778c-0.005-0.014-0.018-0.023-0.024-0.038c-0.045-0.101-0.106-0.192-0.181-0.276
						c-0.018-0.02-0.033-0.04-0.051-0.059c-0.011-0.01-0.018-0.022-0.028-0.032l-9.7-8.623c-0.305-0.271-0.736-0.346-1.117-0.195
						c-0.379,0.152-0.641,0.505-0.674,0.912l-1.077,12.935c-0.001,0.014,0.002,0.028,0.002,0.042
						c-0.001,0.025,0.003,0.052,0.003,0.077c0.004,0.112,0.023,0.223,0.06,0.326c0.005,0.015,0.002,0.03,0.009,0.044l4.311,10.778
						l5.114,12.784c-0.081,0.07-0.162,0.14-0.243,0.211C751.476-596.162,751.374-596.077,751.275-595.988z M769.025-604.718
						c1.322-1.723,3.387-2.771,5.626-2.771c2.071,0,3.997,0.902,5.321,2.407c-0.105-0.012-0.21-0.015-0.314-0.025
						c-0.307-0.032-0.611-0.063-0.918-0.088c-0.378-0.031-0.758-0.056-1.137-0.074c-0.199-0.011-0.4-0.026-0.598-0.033
						c-0.212-0.007-0.423-0.005-0.635-0.008c-0.214-0.005-0.426-0.023-0.642-0.023c-0.206,0-0.409,0.02-0.614,0.023
						c-0.096,0.002-0.191-0.003-0.286,0c-0.375,0.008-0.748,0.031-1.122,0.052c-0.379,0.021-0.759,0.041-1.137,0.073
						c-0.17,0.015-0.341,0.027-0.512,0.045c-0.351,0.035-0.701,0.084-1.051,0.129c-0.313,0.04-0.627,0.074-0.938,0.122
						c-0.169,0.026-0.337,0.062-0.507,0.091C769.385-604.768,769.204-604.752,769.025-604.718z M771.156-598.897l3.368,0.842
						l-0.87,6.086l-8.197,5.123c-0.193,0.122-0.345,0.302-0.43,0.515l-1.841,4.604l-6.706-0.958
						c-0.189-0.027-0.379-0.005-0.554,0.065l-5.194,2.079h-3.191l-1.068-6.415c0.012-0.019,0.023-0.036,0.035-0.055
						c0.332-0.528,0.682-1.045,1.039-1.553c0.17-0.241,0.344-0.479,0.52-0.716c0.336-0.452,0.682-0.896,1.039-1.331
						c0.164-0.199,0.332-0.396,0.5-0.592c0.374-0.435,0.759-0.86,1.153-1.274c0.144-0.15,0.286-0.303,0.433-0.45
						c0.5-0.507,1.014-1,1.543-1.475c0.076-0.067,0.155-0.134,0.232-0.2c0.351-0.309,0.717-0.6,1.08-0.894
						c0.547-0.442,1.106-0.863,1.676-1.27c0.186-0.133,0.369-0.269,0.558-0.396c0.597-0.408,1.208-0.79,1.826-1.159
						c0.163-0.097,0.322-0.201,0.487-0.296c0.762-0.437,1.539-0.846,2.334-1.223c0.06-0.028,0.12-0.056,0.181-0.084
						c0.798-0.374,1.612-0.718,2.44-1.03c0.438-0.165,0.883-0.309,1.328-0.455c0.49-0.163,0.986-0.312,1.484-0.451l4.482,2.829
						C770.939-598.971,771.045-598.926,771.156-598.897z M787.605-603.361l1.598-3.729l7.778,3.889l-1.517,3.642
						c-0.232-0.148-0.471-0.28-0.705-0.423c-0.236-0.144-0.473-0.287-0.711-0.427c-0.096-0.055-0.188-0.114-0.281-0.168
						c-0.027-0.015-0.053-0.033-0.079-0.049c-0.001,0-0.003,0-0.003-0.001c-0.373-0.21-0.754-0.402-1.133-0.598
						c-0.164-0.086-0.326-0.174-0.492-0.257c-0.631-0.314-1.27-0.61-1.916-0.888c-0.055-0.024-0.107-0.05-0.162-0.072
						C789.2-602.773,788.41-603.085,787.605-603.361z M803.006-619.18l-1.556-0.69l1.644-3.289l1.426,0.951L803.006-619.18z
						 M799.86-625.315l1.426,0.95l-1.809,3.617l-1.556-0.69L799.86-625.315z M795.435-619.697c0.056,0.06,0.105,0.124,0.177,0.172
						l3.233,2.155l3.233,2.156c0.145,0.097,0.311,0.144,0.48,0.163l-1.463,2.926l-2.576-1.145l-5.152-2.291L795.435-619.697z
						 M792.4-613.63l1.293,0.574l6.467,2.875l-2.309,5.003l-7.742-3.87L792.4-613.63z M773.574-637.668h2.155l0.001,2.155h-2.156
						V-637.668z M774.486-632.278h0.33l1.797,10.778h-3.922L774.486-632.278z M771.152-619.345h0.266h6.467h0.266l1.54,5.39h-10.077
						L771.152-619.345z M766.928-611.8h1.256h12.936h1.256l1.336,7.347c-0.11-0.024-0.223-0.04-0.332-0.063
						c-0.178-0.038-0.355-0.076-0.535-0.112c-1.581-3.058-4.722-5.016-8.192-5.016c-3.696,0-7.024,2.19-8.49,5.582
						c-0.151,0.041-0.298,0.089-0.448,0.131c-0.076,0.021-0.15,0.037-0.227,0.059L766.928-611.8z M761.697-602.539
						c-0.43,0.177-0.854,0.363-1.273,0.557c-0.144,0.065-0.288,0.129-0.432,0.197c-0.72,0.342-1.428,0.705-2.122,1.091
						c-0.075,0.042-0.147,0.086-0.223,0.128c-0.018,0.01-0.034,0.021-0.054,0.03c-0.028,0.017-0.057,0.033-0.084,0.05
						c-0.615,0.352-1.22,0.721-1.813,1.106c-0.074,0.049-0.15,0.096-0.225,0.145c-0.649,0.431-1.284,0.879-1.904,1.35l-4.462-11.158
						l8.776-3.51l3.978,9.941C761.805-602.59,761.752-602.562,761.697-602.539z M744.795-619.822l8.777-3.511l3.51,8.776
						l-8.776,3.512L744.795-619.822z M745.367-631.119l6.786,6.032l-7.54,3.016L745.367-631.119z"/>
					<path fill="#C49A31" d="M750.938-620.423c-1.782,0-3.233,1.451-3.233,3.234c0,1.782,1.451,3.233,3.233,3.233
						c1.783,0,3.233-1.451,3.233-3.233C754.172-618.972,752.722-620.423,750.938-620.423z M750.938-616.111
						c-0.594,0-1.077-0.483-1.077-1.077c0-0.595,0.483-1.078,1.077-1.078c0.595,0,1.078,0.483,1.078,1.078
						C752.017-616.595,751.533-616.111,750.938-616.111z"/>
				</g>
			</g>
		</g>
	</g>
	<g transform="translate(150.9134864807129, 3.611200687856325)">
		<g transform="scale(1)">
			<path fill="#FFFFFF" d="M801.108-587.456l-3.148-9.125h-19.078l-3.148,9.125h-10.089l17.228-47.947h11.174l17.212,47.947H801.108
				z M781.501-604.262h13.854l-6.927-20.028L781.501-604.262z M827.31-619.892c1.234-1.837,2.937-3.323,5.104-4.457
				c2.179-1.145,4.664-1.717,7.454-1.717l0,0c3.243,0,6.179,0.798,8.81,2.395c2.631,1.606,4.709,3.88,6.234,6.821
				c1.536,2.951,2.305,6.37,2.305,10.255l0,0c0,3.886-0.769,7.329-2.305,10.331c-1.525,2.991-3.604,5.311-6.234,6.957
				s-5.566,2.47-8.81,2.47l0,0c-2.841,0-5.325-0.563-7.454-1.687c-2.118-1.115-3.82-2.565-5.104-4.353l0,0v5.421h-9.608v-50.748
				h9.608V-619.892z M847.414-606.596c0-2.278-0.472-4.257-1.415-5.933c-0.935-1.667-2.169-2.937-3.705-3.811
				c-1.525-0.863-3.183-1.295-4.97-1.295l0,0c-1.736,0-3.373,0.447-4.909,1.341c-1.525,0.894-2.761,2.184-3.704,3.87
				c-0.934,1.696-1.4,3.684-1.4,5.963l0,0c0,2.289,0.467,4.281,1.4,5.979c0.943,1.687,2.179,2.977,3.704,3.87
				c1.536,0.894,3.173,1.34,4.909,1.34l0,0c1.787,0,3.444-0.456,4.97-1.37c1.536-0.913,2.771-2.219,3.705-3.915
				C846.942-602.243,847.414-604.257,847.414-606.596L847.414-606.596z M869.083-629.981c-1.696,0-3.102-0.537-4.216-1.611
				c-1.124-1.074-1.687-2.41-1.687-4.006l0,0c0-1.606,0.563-2.946,1.687-4.021c1.114-1.074,2.52-1.611,4.216-1.611l0,0
				c1.688,0,3.093,0.537,4.217,1.611c1.125,1.074,1.687,2.414,1.687,4.021l0,0c0,1.596-0.562,2.932-1.687,4.006
				C872.175-630.518,870.77-629.981,869.083-629.981L869.083-629.981z M864.204-625.449h9.607v37.993h-9.607V-625.449z"/>
		</g>
	</g>
</g>
<g transform="translate(0,0)">
	<g transform="translate(0, 3.611200687856325)">
		<g transform="scale(1)">
			<g>
				<path fill="#FFFFFF" d="M56.985-71.938c-3.664,0-7.004-0.825-9.928-2.453c-2.934-1.617-5.268-3.945-6.935-6.919
					c-1.668-2.973-2.513-6.454-2.513-10.35c0-3.885,0.87-7.362,2.588-10.335c1.707-2.974,4.086-5.307,7.071-6.935
					c2.972-1.617,6.332-2.437,9.987-2.437s7.015,0.819,9.985,2.437c2.975,1.627,5.354,3.96,7.072,6.935
					c1.718,2.973,2.588,6.45,2.588,10.335c0,3.896-0.891,7.379-2.649,10.352c-1.768,2.973-4.182,5.301-7.176,6.918
					C64.085-72.764,60.689-71.938,56.985-71.938z M57.12-102.809c-2.699,0-4.995,0.973-6.824,2.892
					c-1.82,1.918-2.743,4.696-2.743,8.258c0,3.57,0.903,6.354,2.684,8.274c1.769,1.907,4.039,2.875,6.749,2.875
					c1.711,0,3.342-0.422,4.847-1.253c1.511-0.83,2.733-2.099,3.634-3.771c0.901-1.662,1.358-3.724,1.358-6.126
					c0-3.561-0.948-6.339-2.817-8.258C62.138-101.836,59.821-102.809,57.12-102.809z M98.759-72.074
					c-2.984,0-5.655-0.638-7.938-1.895c-2.295-1.269-4.123-3.151-5.432-5.598c-1.308-2.451-1.97-5.411-1.97-8.796v-22.287
					c0-0.056,0.044-0.1,0.1-0.1h9.607c0.056,0,0.1,0.044,0.1,0.1v20.917c0,2.972,0.752,5.289,2.233,6.889
					c1.489,1.598,3.542,2.408,6.101,2.408c2.608,0,4.687-0.811,6.176-2.408c1.481-1.599,2.232-3.917,2.232-6.889v-20.917
					c0-0.056,0.044-0.1,0.1-0.1h9.668c0.056,0,0.1,0.044,0.1,0.1v37.993c0,0.056-0.044,0.1-0.1,0.1h-9.668
					c-0.056,0-0.1-0.044-0.1-0.1v-4.51c-1.216,1.542-2.793,2.78-4.691,3.682C103.284-72.548,101.092-72.074,98.759-72.074z
					 M129.208-72.557c-0.056,0-0.1-0.044-0.1-0.1v-37.993c0-0.056,0.044-0.1,0.1-0.1h9.592c0.056,0,0.1,0.044,0.1,0.1v5.542
					c1.215-1.875,2.794-3.378,4.7-4.47c1.994-1.147,4.306-1.729,6.87-1.729c0.056,0,0.1,0.044,0.1,0.1v10.089
					c0,0.056-0.044,0.1-0.1,0.1h-2.545c-2.971,0-5.243,0.706-6.754,2.097c-1.507,1.39-2.271,3.857-2.271,7.336v18.929
					c0,0.056-0.044,0.1-0.1,0.1H129.208z M10.755-72.557c-0.056,0-0.1-0.044-0.1-0.1v-40.017H-2c-0.056,0-0.1-0.044-0.1-0.1v-7.756
					c0-0.056,0.044-0.1,0.1-0.1h35.117c0.056,0,0.1,0.044,0.1,0.1v7.756c0,0.056-0.044,0.1-0.1,0.1H20.462v40.017
					c0,0.056-0.044,0.1-0.1,0.1H10.755z"/>
				<path d="M33.117-120.528v7.756H20.362v40.116h-9.607v-40.116H-2v-7.756H33.117 M57.257-111.266c3.654,0,6.967,0.808,9.938,2.425
					c2.973,1.626,5.316,3.925,7.033,6.896s2.575,6.4,2.575,10.285c0,3.896-0.878,7.329-2.636,10.301
					c-1.767,2.971-4.146,5.265-7.138,6.881c-2.991,1.627-6.34,2.44-10.044,2.44c-3.664,0-6.957-0.813-9.879-2.44
					c-2.932-1.616-5.23-3.91-6.896-6.881c-1.667-2.972-2.5-6.405-2.5-10.301c0-3.885,0.858-7.313,2.575-10.285
					c1.706-2.972,4.051-5.271,7.032-6.896C50.289-110.459,53.603-111.266,57.257-111.266 M56.985-80.411
					c1.736,0,3.368-0.422,4.895-1.265c1.535-0.844,2.76-2.113,3.674-3.811c0.914-1.687,1.37-3.744,1.37-6.174
					c0-3.604-0.948-6.38-2.846-8.327c-1.897-1.948-4.217-2.922-6.958-2.922c-2.74,0-5.039,0.974-6.896,2.922
					c-1.848,1.947-2.771,4.723-2.771,8.327c0,3.614,0.903,6.395,2.71,8.343C51.96-81.38,54.234-80.411,56.985-80.411
					 M150.47-111.206v10.089h-2.545c-3.012,0-5.285,0.708-6.821,2.123c-1.536,1.416-2.304,3.886-2.304,7.409v18.929h-9.592v-37.993
					h9.592v5.888c1.234-2.008,2.852-3.584,4.85-4.729C145.637-110.634,147.91-111.206,150.47-111.206 M119.735-110.649v37.993
					h-9.668v-4.804c-1.234,1.646-2.846,2.941-4.834,3.886c-1.987,0.934-4.146,1.4-6.475,1.4c-2.982,0-5.612-0.628-7.891-1.883
					c-2.289-1.265-4.086-3.117-5.392-5.557c-1.306-2.449-1.958-5.365-1.958-8.749v-22.287h9.607v20.917
					c0,3.012,0.754,5.331,2.26,6.957c1.516,1.626,3.573,2.439,6.174,2.439c2.65,0,4.733-0.813,6.249-2.439
					c1.506-1.626,2.259-3.945,2.259-6.957v-20.917H119.735 M33.117-120.728H-2c-0.11,0-0.2,0.09-0.2,0.2v7.756
					c0,0.11,0.09,0.2,0.2,0.2h12.555v39.916c0,0.11,0.09,0.2,0.2,0.2h9.607c0.11,0,0.2-0.09,0.2-0.2v-39.916h12.555
					c0.11,0,0.2-0.09,0.2-0.2v-7.756C33.317-120.639,33.228-120.728,33.117-120.728L33.117-120.728z M57.257-111.467
					c-3.673,0-7.049,0.824-10.035,2.449c-3.001,1.637-5.394,3.982-7.11,6.973c-1.726,2.988-2.602,6.482-2.602,10.385
					c0,3.912,0.85,7.411,2.525,10.398c1.678,2.99,4.024,5.332,6.975,6.958c2.938,1.636,6.294,2.466,9.976,2.466
					c3.721,0,7.133-0.829,10.14-2.465c3.01-1.626,5.437-3.966,7.214-6.954c1.768-2.988,2.664-6.488,2.664-10.403
					c0-3.902-0.876-7.396-2.603-10.385c-1.728-2.991-4.12-5.337-7.11-6.973C64.305-110.642,60.929-111.467,57.257-111.467
					L57.257-111.467z M56.985-80.611c-2.681,0-4.927-0.956-6.676-2.842c-1.763-1.901-2.656-4.662-2.656-8.207
					c0-3.535,0.913-6.29,2.716-8.189c1.809-1.897,4.08-2.859,6.751-2.859c2.673,0,4.966,0.963,6.814,2.861
					c1.851,1.899,2.789,4.654,2.789,8.188c0,2.386-0.453,4.431-1.346,6.078c-0.891,1.654-2.101,2.91-3.595,3.73
					C60.293-81.028,58.679-80.611,56.985-80.611L56.985-80.611z M150.47-111.406c-2.582,0-4.911,0.586-6.92,1.742
					c-1.825,1.046-3.353,2.465-4.55,4.225v-5.21c0-0.11-0.09-0.2-0.2-0.2h-9.592c-0.11,0-0.2,0.09-0.2,0.2v37.993
					c0,0.11,0.09,0.2,0.2,0.2h9.592c0.11,0,0.2-0.09,0.2-0.2v-18.929c0-3.449,0.753-5.893,2.239-7.262
					c1.491-1.374,3.74-2.07,6.686-2.07h2.545c0.11,0,0.2-0.09,0.2-0.2v-10.089C150.67-111.316,150.58-111.406,150.47-111.406
					L150.47-111.406z M119.735-110.849h-9.668c-0.11,0-0.2,0.09-0.2,0.2v20.917c0,2.946-0.742,5.241-2.205,6.821
					c-1.47,1.576-3.522,2.375-6.103,2.375c-2.53,0-4.558-0.799-6.027-2.376c-1.464-1.58-2.206-3.875-2.206-6.82v-20.917
					c0-0.11-0.09-0.2-0.2-0.2h-9.607c-0.11,0-0.2,0.09-0.2,0.2v22.287c0,3.401,0.667,6.377,1.981,8.843
					c1.319,2.464,3.16,4.36,5.472,5.638c2.298,1.267,4.985,1.908,7.987,1.908c2.348,0,4.555-0.478,6.56-1.42
					c1.822-0.865,3.35-2.037,4.549-3.489v4.227c0,0.11,0.09,0.2,0.2,0.2h9.668c0.11,0,0.2-0.09,0.2-0.2v-37.993
					C119.936-110.76,119.846-110.849,119.735-110.849L119.735-110.849z"/>
			</g>
		</g>
	</g>
	<g transform="translate(104.25, 0)">
		<g>
			<g>
				<g>
					<rect x="50.737" y="-128.258" fill="#C49A31" fill-opacity="0" width="65.753" height="65.269"/>
					<path fill="#C49A31" d="M59.976-81.188c-0.565,0.506-1.113,1.031-1.646,1.573c-0.154,0.157-0.305,0.32-0.458,0.48
						c-0.39,0.412-0.771,0.833-1.145,1.265c-0.161,0.188-0.327,0.371-0.486,0.561c-0.438,0.529-0.862,1.074-1.272,1.631
						c-0.187,0.252-0.367,0.511-0.548,0.769c-0.289,0.411-0.567,0.832-0.842,1.258c-0.145,0.225-0.294,0.446-0.435,0.676
						c-0.006,0.013-0.014,0.023-0.021,0.036c-0.003,0.005-0.003,0.011-0.006,0.016c-0.889,1.464-1.689,2.996-2.379,4.603
						l1.982,0.849c0.238-0.558,0.51-1.097,0.775-1.638l0.771,4.625c0.085,0.519,0.534,0.899,1.062,0.899h4.312
						c0.138,0,0.272-0.025,0.401-0.076l5.121-2.049l7.259,1.037c0.495,0.073,0.97-0.205,1.153-0.666l2.024-5.063l8.324-5.202
						c0.27-0.168,0.45-0.447,0.495-0.763l1.078-7.545c0.079-0.546-0.27-1.063-0.805-1.198l-4.145-1.036l-2.545-1.605
						c0.177-0.033,0.354-0.069,0.531-0.1c0.569-0.098,1.14-0.18,1.713-0.25c0.277-0.033,0.555-0.065,0.834-0.093
						c0.566-0.055,1.135-0.094,1.702-0.12c0.294-0.015,0.59-0.026,0.886-0.032c0.589-0.014,1.178-0.011,1.768,0.005
						c0.217,0.007,0.436,0.012,0.652,0.022c0.016,0.001,0.031,0.001,0.047,0.003c0.602,0.028,1.203,0.079,1.803,0.14
						c0.232,0.023,0.464,0.042,0.694,0.071c0.597,0.072,1.188,0.169,1.782,0.272c0.233,0.041,0.471,0.073,0.703,0.12
						c0.615,0.12,1.224,0.27,1.832,0.423c0.781,0.2,1.553,0.424,2.314,0.676c0.334,0.111,0.666,0.228,0.997,0.349
						c0.438,0.16,0.876,0.325,1.308,0.503c0.332,0.138,0.658,0.285,0.985,0.433c0.12,0.054,0.237,0.111,0.357,0.166l-3.997,1.143
						c-0.309,0.088-0.563,0.31-0.691,0.603s-0.121,0.629,0.022,0.916l0.731,1.46l-3.762,3.762c-0.422,0.422-0.422,1.104,0,1.524
						l4.311,4.312c0.229,0.229,0.543,0.346,0.869,0.311c0.321-0.031,0.611-0.206,0.79-0.475l3.99-5.987h2.657v3.686l-7.002,4.001
						c-0.083,0.047-0.16,0.105-0.228,0.173l-2.155,2.156c-0.363,0.363-0.421,0.933-0.135,1.36l2.155,3.233l1.794-1.195l-1.666-2.499
						l1.43-1.429l7.42-4.24c0.335-0.19,0.542-0.548,0.542-0.935v-5.39c0-0.595-0.483-1.077-1.077-1.077h-4.313
						c-0.359,0-0.695,0.18-0.896,0.479l-3.582,5.373l-2.619-2.619l3.549-3.55c0.328-0.327,0.41-0.828,0.203-1.243l-0.498-0.994
						l4.955-1.415c0.043,0.024,0.087,0.045,0.129,0.07c0.164,0.097,0.32,0.204,0.484,0.304c0.524,0.318,1.046,0.644,1.555,0.99
						c0.465,0.318,0.918,0.65,1.365,0.988c0.119,0.091,0.243,0.173,0.361,0.265c3.662,2.849,6.725,6.412,8.996,10.497l0.004-0.003
						c0.002,0.003,0.002,0.004,0.004,0.006l1.884-1.047c-1.244-2.239-2.708-4.313-4.347-6.206c-0.031-0.034-0.064-0.066-0.094-0.103
						c-0.514-0.587-1.041-1.158-1.588-1.709c-0.117-0.118-0.24-0.227-0.357-0.343c-0.47-0.459-0.943-0.913-1.434-1.346
						c-0.188-0.163-0.383-0.317-0.572-0.479c-0.436-0.368-0.871-0.735-1.323-1.082c-0.245-0.188-0.501-0.365-0.751-0.549
						c-0.017-0.012-0.031-0.022-0.048-0.034l2.071-4.974l3.223-6.981l3.226-6.45c0.132-0.263,0.149-0.569,0.051-0.847
						c-0.099-0.276-0.309-0.501-0.577-0.62l-0.292-0.13l1.896-3.793c0.244-0.485,0.087-1.077-0.365-1.378l-3.234-2.156l-3.233-2.155
						c-0.257-0.173-0.577-0.226-0.875-0.145c-0.299,0.078-0.549,0.283-0.688,0.56l-2.527,5.056l-0.381-0.169
						c-0.529-0.235-1.145-0.013-1.402,0.502l-3.234,6.468l-3.232,6.467c-0.006,0.011-0.005,0.021-0.01,0.032
						c-0.004,0.01-0.014,0.017-0.017,0.024l-1.823,4.255l-1.515-8.333c-0.094-0.513-0.54-0.886-1.061-0.886h-1.343l-1.934-6.764
						c-0.131-0.463-0.555-0.781-1.035-0.781h-0.165l-2.006-12.034c-0.005-0.035-0.024-0.063-0.034-0.097
						c0.668-0.366,1.127-1.066,1.127-1.882v-2.155c0-1.188-0.967-2.156-2.155-2.156v-3.233h-2.155v3.233
						c-1.189,0-2.156,0.968-2.156,2.156v2.155c0,0.815,0.459,1.516,1.127,1.884c-0.01,0.033-0.029,0.061-0.035,0.096L79.205-106.7
						H79.04c-0.48,0-0.904,0.318-1.035,0.781l-1.934,6.764h-1.342c-0.521,0-0.968,0.373-1.062,0.885l-1.553,8.541l-3.931-9.827
						l-4.313-10.778c-0.005-0.014-0.018-0.023-0.024-0.038c-0.045-0.101-0.106-0.192-0.181-0.276
						c-0.018-0.02-0.033-0.04-0.051-0.059c-0.011-0.01-0.018-0.022-0.028-0.032l-9.7-8.623c-0.305-0.271-0.736-0.346-1.117-0.195
						c-0.379,0.152-0.641,0.505-0.674,0.912l-1.077,12.935c-0.001,0.014,0.002,0.028,0.002,0.042
						c-0.001,0.025,0.003,0.052,0.003,0.077c0.004,0.112,0.023,0.223,0.06,0.326c0.005,0.015,0.002,0.03,0.009,0.044l4.311,10.778
						l5.114,12.784c-0.081,0.07-0.162,0.14-0.243,0.211C60.176-81.362,60.074-81.277,59.976-81.188z M77.726-89.918
						c1.322-1.723,3.387-2.771,5.626-2.771c2.071,0,3.997,0.902,5.321,2.407c-0.105-0.012-0.21-0.015-0.314-0.025
						c-0.307-0.032-0.611-0.063-0.918-0.088c-0.378-0.031-0.758-0.056-1.137-0.074c-0.199-0.011-0.4-0.026-0.598-0.033
						c-0.212-0.007-0.423-0.005-0.635-0.008c-0.214-0.005-0.426-0.023-0.642-0.023c-0.206,0-0.409,0.02-0.614,0.023
						c-0.096,0.002-0.191-0.003-0.286,0c-0.375,0.008-0.748,0.031-1.122,0.052c-0.379,0.021-0.759,0.041-1.137,0.073
						c-0.17,0.015-0.341,0.027-0.512,0.045c-0.351,0.035-0.701,0.084-1.051,0.129c-0.313,0.04-0.627,0.074-0.938,0.122
						c-0.169,0.026-0.337,0.062-0.507,0.091C78.085-89.968,77.904-89.952,77.726-89.918z M79.856-84.098l3.368,0.842l-0.87,6.086
						l-8.197,5.123c-0.193,0.122-0.345,0.302-0.43,0.515l-1.841,4.604l-6.706-0.958c-0.189-0.027-0.379-0.005-0.554,0.065
						l-5.194,2.079h-3.191l-1.068-6.415c0.012-0.019,0.023-0.036,0.035-0.055c0.332-0.528,0.682-1.045,1.039-1.553
						c0.17-0.241,0.344-0.479,0.52-0.716c0.336-0.452,0.682-0.896,1.039-1.331c0.164-0.199,0.332-0.396,0.5-0.592
						c0.374-0.435,0.759-0.86,1.153-1.274c0.144-0.15,0.286-0.303,0.433-0.45c0.5-0.507,1.014-1,1.543-1.475
						c0.076-0.067,0.155-0.134,0.232-0.2c0.351-0.309,0.717-0.6,1.08-0.894c0.547-0.442,1.106-0.863,1.676-1.27
						c0.186-0.133,0.369-0.269,0.558-0.396c0.597-0.408,1.208-0.79,1.826-1.159c0.163-0.097,0.322-0.201,0.487-0.296
						c0.762-0.437,1.539-0.846,2.334-1.223c0.06-0.028,0.12-0.056,0.181-0.084c0.798-0.374,1.612-0.718,2.44-1.03
						c0.438-0.165,0.883-0.309,1.328-0.455c0.49-0.163,0.986-0.312,1.484-0.451l4.482,2.829
						C79.64-84.171,79.745-84.126,79.856-84.098z M96.306-88.562l1.598-3.729l7.778,3.889l-1.517,3.642
						c-0.232-0.148-0.471-0.28-0.705-0.423c-0.236-0.144-0.473-0.287-0.711-0.427c-0.096-0.055-0.188-0.114-0.281-0.168
						c-0.027-0.015-0.053-0.033-0.079-0.049c-0.001,0-0.003,0-0.003-0.001c-0.373-0.21-0.754-0.402-1.133-0.598
						c-0.164-0.086-0.326-0.174-0.492-0.257c-0.631-0.314-1.27-0.61-1.916-0.888c-0.055-0.024-0.107-0.05-0.162-0.072
						C97.9-87.974,97.11-88.285,96.306-88.562z M111.706-104.38l-1.556-0.69l1.644-3.289l1.426,0.951L111.706-104.38z
						 M108.561-110.516l1.426,0.95l-1.809,3.617l-1.556-0.69L108.561-110.516z M104.135-104.897c0.056,0.06,0.105,0.124,0.177,0.172
						l3.233,2.155l3.233,2.156c0.145,0.097,0.311,0.144,0.48,0.163l-1.463,2.926l-2.576-1.145l-5.152-2.291L104.135-104.897z
						 M101.101-98.83l1.293,0.574l6.467,2.875l-2.309,5.003l-7.742-3.87L101.101-98.83z M82.274-122.868h2.155l0.001,2.155h-2.156
						V-122.868z M83.187-117.479h0.33l1.797,10.778h-3.922L83.187-117.479z M79.853-104.545h0.266h6.467h0.266l1.54,5.39H78.313
						L79.853-104.545z M75.628-97h1.256h12.936h1.256l1.336,7.347c-0.11-0.024-0.223-0.04-0.332-0.063
						c-0.178-0.038-0.355-0.076-0.535-0.112c-1.581-3.058-4.722-5.016-8.192-5.016c-3.696,0-7.024,2.19-8.49,5.582
						c-0.151,0.041-0.298,0.089-0.448,0.131c-0.076,0.021-0.15,0.037-0.227,0.059L75.628-97z M70.397-87.739
						c-0.43,0.177-0.854,0.363-1.273,0.557c-0.144,0.065-0.288,0.129-0.432,0.197c-0.72,0.342-1.428,0.705-2.122,1.091
						c-0.075,0.042-0.147,0.086-0.223,0.128c-0.018,0.01-0.034,0.021-0.054,0.03c-0.028,0.017-0.057,0.033-0.084,0.05
						c-0.615,0.352-1.22,0.721-1.813,1.106c-0.074,0.049-0.15,0.096-0.225,0.145c-0.649,0.431-1.284,0.879-1.904,1.35l-4.462-11.158
						l8.776-3.51l3.978,9.941C70.505-87.79,70.452-87.762,70.397-87.739z M53.495-105.022l8.777-3.511l3.51,8.776l-8.776,3.512
						L53.495-105.022z M54.067-116.319l6.786,6.032l-7.54,3.016L54.067-116.319z"/>
					<path fill="#C49A31" d="M59.639-105.623c-1.782,0-3.233,1.451-3.233,3.234c0,1.782,1.451,3.233,3.233,3.233
						c1.783,0,3.233-1.451,3.233-3.233C62.872-104.172,61.422-105.623,59.639-105.623z M59.639-101.312
						c-0.594,0-1.077-0.483-1.077-1.077c0-0.595,0.483-1.078,1.077-1.078c0.595,0,1.078,0.483,1.078,1.078
						C60.717-101.795,60.233-101.312,59.639-101.312z"/>
				</g>
			</g>
		</g>
	</g>
	<g transform="translate(150.9134864807129, 3.611200687856325)">
		<g transform="scale(1)">
			<g>
				<path fill="#FFFFFF" d="M148.569-71.938c-2.843,0-5.366-0.571-7.501-1.697c-2.025-1.067-3.692-2.458-4.958-4.137v5.116
					c0,0.056-0.044,0.1-0.1,0.1h-9.608c-0.056,0-0.1-0.044-0.1-0.1v-50.748c0-0.056,0.044-0.1,0.1-0.1h9.608
					c0.056,0,0.1,0.044,0.1,0.1v17.991c1.224-1.724,2.891-3.144,4.959-4.226c2.183-1.146,4.706-1.728,7.5-1.728
					c3.246,0,6.228,0.811,8.861,2.408c2.635,1.609,4.745,3.918,6.271,6.861c1.536,2.952,2.315,6.418,2.315,10.301
					s-0.778,7.374-2.315,10.377c-1.526,2.993-3.637,5.348-6.271,6.996C154.797-72.774,151.815-71.938,148.569-71.938z
					 M146.024-102.734c-1.71,0-3.345,0.447-4.859,1.328c-1.503,0.88-2.736,2.17-3.667,3.832c-0.92,1.673-1.388,3.663-1.388,5.914
					c0,2.261,0.468,4.256,1.389,5.931c0.93,1.661,2.163,2.951,3.667,3.832c1.513,0.88,3.147,1.326,4.858,1.326
					c1.762,0,3.417-0.457,4.918-1.356c1.513-0.898,2.747-2.203,3.669-3.877c0.931-1.664,1.403-3.68,1.403-5.991
					c0-2.251-0.472-4.23-1.402-5.884c-0.921-1.643-2.155-2.912-3.668-3.772C149.441-102.303,147.786-102.734,146.024-102.734z
					 M172.904-72.557c-0.056,0-0.1-0.044-0.1-0.1v-37.993c0-0.056,0.044-0.1,0.1-0.1h9.607c0.056,0,0.1,0.044,0.1,0.1v37.993
					c0,0.056-0.044,0.1-0.1,0.1H172.904z M109.808-72.557c-0.043,0-0.081-0.026-0.095-0.067l-3.125-9.058H87.653l-3.125,9.058
					c-0.014,0.041-0.052,0.067-0.095,0.067H74.344c-0.032,0-0.063-0.016-0.082-0.042s-0.023-0.061-0.012-0.092l17.228-47.947
					c0.014-0.039,0.052-0.065,0.094-0.065h11.174c0.042,0,0.08,0.026,0.094,0.065l17.212,47.947
					c0.012,0.031,0.007,0.065-0.012,0.092s-0.05,0.042-0.082,0.042H109.808z M103.915-89.561l-6.786-19.623l-6.787,19.623H103.915z
					 M177.783-115.082c-1.715,0-3.157-0.551-4.285-1.639c-1.14-1.089-1.717-2.461-1.717-4.078c0-1.627,0.577-3.004,1.717-4.093
					c1.128-1.088,2.57-1.639,4.285-1.639c1.706,0,3.147,0.551,4.286,1.639c1.14,1.088,1.717,2.465,1.717,4.093
					c0,1.618-0.577,2.99-1.717,4.078C180.93-115.633,179.489-115.082,177.783-115.082z"/>
				<path d="M177.783-126.431c1.688,0,3.093,0.537,4.217,1.611c1.125,1.074,1.687,2.414,1.687,4.021
					c0,1.596-0.562,2.932-1.687,4.006c-1.124,1.074-2.529,1.611-4.217,1.611c-1.696,0-3.102-0.537-4.216-1.611
					c-1.124-1.074-1.687-2.41-1.687-4.006c0-1.606,0.563-2.946,1.687-4.021C174.681-125.893,176.087-126.431,177.783-126.431
					 M136.01-123.404v18.312c1.234-1.837,2.937-3.323,5.104-4.457c2.179-1.145,4.664-1.717,7.454-1.717
					c3.243,0,6.179,0.798,8.81,2.395c2.631,1.606,4.709,3.88,6.234,6.821c1.536,2.951,2.305,6.37,2.305,10.255
					c0,3.886-0.769,7.329-2.305,10.331c-1.525,2.991-3.604,5.311-6.234,6.957s-5.566,2.47-8.81,2.47
					c-2.841,0-5.325-0.563-7.454-1.687c-2.118-1.115-3.82-2.565-5.104-4.353v5.421h-9.608v-50.748H136.01 M146.024-80.472
					c1.787,0,3.444-0.456,4.97-1.37c1.536-0.913,2.771-2.219,3.705-3.915c0.943-1.687,1.415-3.7,1.415-6.039
					c0-2.278-0.472-4.257-1.415-5.933c-0.935-1.667-2.169-2.937-3.705-3.811c-1.525-0.863-3.183-1.295-4.97-1.295
					c-1.736,0-3.373,0.447-4.909,1.341c-1.525,0.894-2.761,2.184-3.704,3.87c-0.934,1.696-1.4,3.684-1.4,5.963
					c0,2.289,0.467,4.281,1.4,5.979c0.943,1.687,2.179,2.977,3.704,3.87C142.651-80.918,144.288-80.472,146.024-80.472
					 M102.746-120.603l17.212,47.947h-10.149l-3.148-9.125H87.582l-3.148,9.125H74.344l17.228-47.947H102.746 M90.201-89.462h13.854
					l-6.927-20.028L90.201-89.462 M182.511-110.649v37.993h-9.607v-37.993H182.511 M177.783-126.631
					c-1.742,0-3.207,0.562-4.354,1.668c-1.159,1.107-1.748,2.509-1.748,4.164c0,1.646,0.589,3.042,1.749,4.15
					c1.146,1.105,2.611,1.667,4.354,1.667c1.732,0,3.197-0.561,4.355-1.667c1.159-1.107,1.748-2.504,1.748-4.15
					c0-1.656-0.589-3.058-1.749-4.165C180.98-126.07,179.515-126.631,177.783-126.631L177.783-126.631z M136.01-123.604h-9.608
					c-0.11,0-0.2,0.09-0.2,0.2v50.748c0,0.11,0.09,0.2,0.2,0.2h9.608c0.11,0,0.2-0.09,0.2-0.2v-4.823
					c1.251,1.587,2.867,2.908,4.812,3.932c2.148,1.135,4.688,1.71,7.547,1.71c3.265,0,6.265-0.842,8.916-2.5
					c2.649-1.658,4.771-4.025,6.306-7.036c1.544-3.017,2.327-6.523,2.327-10.422c0-3.899-0.783-7.381-2.327-10.348
					c-1.535-2.959-3.657-5.281-6.308-6.899c-2.65-1.608-5.649-2.424-8.914-2.424c-2.811,0-5.35,0.586-7.547,1.74
					c-1.981,1.036-3.598,2.382-4.812,4.006v-17.684C136.211-123.515,136.121-123.604,136.01-123.604L136.01-123.604z
					 M146.024-80.672c-1.693,0-3.312-0.441-4.809-1.313c-1.487-0.871-2.709-2.148-3.63-3.795c-0.912-1.658-1.375-3.637-1.375-5.881
					c0-2.234,0.463-4.208,1.375-5.866c0.921-1.646,2.143-2.923,3.631-3.794c1.498-0.872,3.115-1.313,4.808-1.313
					c1.744,0,3.384,0.427,4.871,1.269c1.496,0.852,2.718,2.108,3.629,3.734c0.923,1.638,1.39,3.602,1.39,5.835
					c0,2.294-0.467,4.293-1.39,5.941c-0.914,1.659-2.136,2.951-3.633,3.841C149.405-81.123,147.768-80.672,146.024-80.672
					L146.024-80.672z M102.746-120.804H91.572c-0.084,0-0.16,0.053-0.188,0.133L74.156-72.724c-0.021,0.062-0.013,0.129,0.025,0.183
					c0.037,0.053,0.098,0.085,0.163,0.085h10.089c0.085,0,0.161-0.055,0.189-0.135l3.102-8.99h18.793l3.102,8.99
					c0.028,0.08,0.104,0.135,0.189,0.135h10.149c0.065,0,0.126-0.032,0.163-0.085c0.038-0.054,0.047-0.121,0.025-0.183
					l-17.212-47.947C102.906-120.751,102.83-120.804,102.746-120.804L102.746-120.804z M90.482-89.662l6.646-19.216l6.646,19.216
					H90.482L90.482-89.662z M182.511-110.849h-9.607c-0.11,0-0.2,0.09-0.2,0.2v37.993c0,0.11,0.09,0.2,0.2,0.2h9.607
					c0.11,0,0.2-0.09,0.2-0.2v-37.993C182.712-110.76,182.622-110.849,182.511-110.849L182.511-110.849z"/>
			</g>
		</g>
	</g>
</g>
<g transform="translate(0,0)">
	<g transform="translate(0, 3.611200687856325)">
		<g transform="scale(1)">
			<g>
				<path fill="#C49A31" d="M0,7.472h35.117v7.756H22.362v40.116h-9.607V15.228H0V7.472z M58.985,55.962
					c-3.664,0-6.957-0.813-9.879-2.44c-2.932-1.616-5.23-3.91-6.896-6.881c-1.667-2.972-2.5-6.405-2.5-10.301l0,0
					c0-3.885,0.858-7.313,2.575-10.285c1.706-2.972,4.051-5.271,7.032-6.896c2.972-1.617,6.285-2.425,9.939-2.425l0,0
					c3.654,0,6.967,0.808,9.938,2.425c2.973,1.626,5.316,3.925,7.033,6.896s2.575,6.4,2.575,10.285l0,0
					c0,3.896-0.878,7.329-2.636,10.301c-1.767,2.971-4.146,5.265-7.138,6.881C66.038,55.149,62.689,55.962,58.985,55.962
					L58.985,55.962z M58.985,47.589c1.736,0,3.368-0.422,4.895-1.265c1.535-0.844,2.76-2.113,3.674-3.811
					c0.914-1.687,1.37-3.744,1.37-6.174l0,0c0-3.604-0.948-6.38-2.846-8.327c-1.897-1.948-4.217-2.922-6.958-2.922l0,0
					c-2.74,0-5.039,0.974-6.896,2.922c-1.848,1.947-2.771,4.723-2.771,8.327l0,0c0,3.614,0.903,6.395,2.71,8.343
					C53.96,46.62,56.234,47.589,58.985,47.589L58.985,47.589z M112.067,17.351h9.668v37.993h-9.668V50.54
					c-1.234,1.646-2.846,2.941-4.834,3.886c-1.987,0.934-4.146,1.4-6.475,1.4l0,0c-2.982,0-5.612-0.628-7.891-1.883
					c-2.289-1.265-4.086-3.117-5.392-5.557c-1.306-2.449-1.958-5.365-1.958-8.749l0,0V17.351h9.607v20.917
					c0,3.012,0.754,5.331,2.26,6.957c1.516,1.626,3.573,2.439,6.174,2.439l0,0c2.65,0,4.733-0.813,6.249-2.439
					c1.506-1.626,2.259-3.945,2.259-6.957l0,0V17.351z M140.8,23.238c1.234-2.008,2.852-3.584,4.85-4.729
					c1.987-1.144,4.261-1.716,6.82-1.716l0,0v10.089h-2.545c-3.012,0-5.285,0.708-6.821,2.123c-1.536,1.416-2.304,3.886-2.304,7.409
					l0,0v18.929h-9.592V17.351h9.592V23.238z"/>
			</g>
		</g>
	</g>
	<g transform="translate(104.25, 0)">
		<g>
			<g>
				<g>
					<rect x="52.737" y="-0.258" fill="#149CF4" fill-opacity="0" width="65.753" height="65.269"/>
					<path fill="#149CF4" d="M61.976,46.812c-0.565,0.506-1.113,1.031-1.646,1.573c-0.154,0.157-0.305,0.32-0.458,0.48
						c-0.39,0.412-0.771,0.833-1.145,1.265c-0.161,0.188-0.327,0.371-0.486,0.561c-0.438,0.529-0.862,1.074-1.272,1.631
						c-0.187,0.252-0.367,0.511-0.548,0.769c-0.289,0.411-0.567,0.832-0.842,1.258c-0.145,0.225-0.294,0.446-0.435,0.676
						c-0.006,0.013-0.014,0.023-0.021,0.036c-0.003,0.005-0.003,0.011-0.006,0.016c-0.889,1.464-1.689,2.996-2.379,4.603
						l1.982,0.849c0.238-0.558,0.51-1.097,0.775-1.638l0.771,4.625c0.085,0.519,0.534,0.899,1.062,0.899h4.312
						c0.138,0,0.272-0.025,0.401-0.076l5.121-2.049l7.259,1.037c0.495,0.073,0.97-0.205,1.153-0.666l2.024-5.063l8.324-5.202
						c0.27-0.168,0.45-0.447,0.495-0.763l1.078-7.545c0.079-0.546-0.27-1.063-0.805-1.198l-4.145-1.036l-2.545-1.605
						c0.177-0.033,0.354-0.069,0.531-0.1c0.569-0.098,1.14-0.18,1.713-0.25c0.277-0.033,0.555-0.065,0.834-0.093
						c0.566-0.055,1.135-0.094,1.702-0.12c0.294-0.015,0.59-0.026,0.886-0.032c0.589-0.014,1.178-0.011,1.768,0.005
						c0.217,0.007,0.436,0.012,0.652,0.022c0.016,0.001,0.031,0.001,0.047,0.003c0.602,0.028,1.203,0.079,1.803,0.14
						c0.232,0.023,0.464,0.042,0.694,0.071c0.597,0.072,1.188,0.169,1.782,0.272c0.233,0.041,0.471,0.073,0.703,0.12
						c0.615,0.12,1.224,0.27,1.832,0.423c0.781,0.2,1.553,0.424,2.314,0.676c0.334,0.111,0.666,0.228,0.997,0.349
						c0.438,0.16,0.876,0.325,1.308,0.503c0.332,0.138,0.658,0.285,0.985,0.433c0.12,0.054,0.237,0.111,0.357,0.166l-3.997,1.143
						c-0.309,0.088-0.563,0.31-0.691,0.603s-0.121,0.629,0.022,0.916l0.731,1.46l-3.762,3.762c-0.422,0.422-0.422,1.104,0,1.524
						l4.311,4.312c0.229,0.229,0.543,0.346,0.869,0.311c0.321-0.031,0.611-0.206,0.79-0.475l3.99-5.987h2.657v3.686l-7.002,4.001
						c-0.083,0.047-0.16,0.105-0.228,0.173l-2.155,2.156c-0.363,0.363-0.421,0.933-0.135,1.36l2.155,3.233l1.794-1.195l-1.666-2.499
						l1.43-1.429l7.42-4.24c0.335-0.19,0.542-0.548,0.542-0.935v-5.39c0-0.595-0.483-1.077-1.077-1.077h-4.313
						c-0.359,0-0.695,0.18-0.896,0.479l-3.582,5.373l-2.619-2.619l3.549-3.55c0.328-0.327,0.41-0.828,0.203-1.243l-0.498-0.994
						l4.955-1.415c0.043,0.024,0.087,0.045,0.129,0.07c0.164,0.097,0.32,0.204,0.484,0.304c0.524,0.318,1.046,0.644,1.555,0.99
						c0.465,0.318,0.918,0.65,1.365,0.988c0.119,0.091,0.243,0.173,0.361,0.265c3.662,2.849,6.725,6.412,8.996,10.497l0.004-0.003
						c0.002,0.003,0.002,0.004,0.004,0.006l1.884-1.047c-1.244-2.239-2.708-4.313-4.347-6.206c-0.031-0.034-0.064-0.066-0.094-0.103
						c-0.514-0.587-1.041-1.158-1.588-1.709c-0.117-0.118-0.24-0.227-0.357-0.343c-0.47-0.459-0.943-0.913-1.434-1.346
						c-0.188-0.163-0.383-0.317-0.572-0.479c-0.436-0.368-0.871-0.735-1.323-1.082c-0.245-0.188-0.501-0.365-0.751-0.549
						c-0.017-0.012-0.031-0.022-0.048-0.034l2.071-4.974l3.223-6.981l3.226-6.45c0.132-0.263,0.149-0.569,0.051-0.847
						c-0.099-0.276-0.309-0.501-0.577-0.62l-0.292-0.13l1.896-3.793c0.244-0.485,0.087-1.077-0.365-1.378l-3.234-2.156l-3.233-2.155
						c-0.257-0.173-0.577-0.226-0.875-0.145c-0.299,0.078-0.549,0.283-0.688,0.56l-2.527,5.056l-0.381-0.169
						c-0.529-0.235-1.145-0.013-1.402,0.502l-3.234,6.468l-3.232,6.467c-0.006,0.011-0.005,0.021-0.01,0.032
						c-0.004,0.01-0.014,0.017-0.017,0.024l-1.823,4.255l-1.515-8.333c-0.094-0.513-0.54-0.886-1.061-0.886h-1.343l-1.934-6.764
						c-0.131-0.463-0.555-0.781-1.035-0.781h-0.165L87.492,9.266c-0.005-0.035-0.024-0.063-0.034-0.097
						c0.668-0.366,1.127-1.066,1.127-1.882V5.132c0-1.188-0.967-2.156-2.155-2.156v-3.233h-2.155v3.233
						c-1.189,0-2.156,0.968-2.156,2.156v2.155c0,0.815,0.459,1.516,1.127,1.884c-0.01,0.033-0.029,0.061-0.035,0.096L81.205,21.3
						H81.04c-0.48,0-0.904,0.318-1.035,0.781l-1.934,6.764h-1.342c-0.521,0-0.968,0.373-1.062,0.885l-1.553,8.541l-3.931-9.827
						l-4.313-10.778c-0.005-0.014-0.018-0.023-0.024-0.038c-0.045-0.101-0.106-0.192-0.181-0.276
						c-0.018-0.02-0.033-0.04-0.051-0.059c-0.011-0.01-0.018-0.022-0.028-0.032l-9.7-8.623c-0.305-0.271-0.736-0.346-1.117-0.195
						c-0.379,0.152-0.641,0.505-0.674,0.912L53.02,22.288c-0.001,0.014,0.002,0.028,0.002,0.042
						c-0.001,0.025,0.003,0.052,0.003,0.077c0.004,0.112,0.023,0.223,0.06,0.326c0.005,0.015,0.002,0.03,0.009,0.044l4.311,10.778
						l5.114,12.784c-0.081,0.07-0.162,0.14-0.243,0.211C62.176,46.638,62.074,46.723,61.976,46.812z M79.726,38.082
						c1.322-1.723,3.387-2.771,5.626-2.771c2.071,0,3.997,0.902,5.321,2.407c-0.105-0.012-0.21-0.015-0.314-0.025
						c-0.307-0.032-0.611-0.063-0.918-0.088c-0.378-0.031-0.758-0.056-1.137-0.074c-0.199-0.011-0.4-0.026-0.598-0.033
						c-0.212-0.007-0.423-0.005-0.635-0.008c-0.214-0.005-0.426-0.023-0.642-0.023c-0.206,0-0.409,0.02-0.614,0.023
						c-0.096,0.002-0.191-0.003-0.286,0c-0.375,0.008-0.748,0.031-1.122,0.052c-0.379,0.021-0.759,0.041-1.137,0.073
						c-0.17,0.015-0.341,0.027-0.512,0.045c-0.351,0.035-0.701,0.084-1.051,0.129c-0.313,0.04-0.627,0.074-0.938,0.122
						c-0.169,0.026-0.337,0.062-0.507,0.091C80.085,38.032,79.904,38.048,79.726,38.082z M81.856,43.902l3.368,0.842l-0.87,6.086
						l-8.197,5.123c-0.193,0.122-0.345,0.302-0.43,0.515l-1.841,4.604l-6.706-0.958c-0.189-0.027-0.379-0.005-0.554,0.065
						l-5.194,2.079h-3.191l-1.068-6.415c0.012-0.019,0.023-0.036,0.035-0.055c0.332-0.528,0.682-1.045,1.039-1.553
						c0.17-0.241,0.344-0.479,0.52-0.716c0.336-0.452,0.682-0.896,1.039-1.331c0.164-0.199,0.332-0.396,0.5-0.592
						c0.374-0.435,0.759-0.86,1.153-1.274c0.144-0.15,0.286-0.303,0.433-0.45c0.5-0.507,1.014-1,1.543-1.475
						c0.076-0.067,0.155-0.134,0.232-0.2c0.351-0.309,0.717-0.6,1.08-0.894c0.547-0.442,1.106-0.863,1.676-1.27
						c0.186-0.133,0.369-0.269,0.558-0.396c0.597-0.408,1.208-0.79,1.826-1.159c0.163-0.097,0.322-0.201,0.487-0.296
						c0.762-0.437,1.539-0.846,2.334-1.223c0.06-0.028,0.12-0.056,0.181-0.084c0.798-0.374,1.612-0.718,2.44-1.03
						c0.438-0.165,0.883-0.309,1.328-0.455c0.49-0.163,0.986-0.312,1.484-0.451l4.482,2.829
						C81.64,43.829,81.745,43.874,81.856,43.902z M98.306,39.438l1.598-3.729l7.778,3.889l-1.517,3.642
						c-0.232-0.148-0.471-0.28-0.705-0.423c-0.236-0.144-0.473-0.287-0.711-0.427c-0.096-0.055-0.188-0.114-0.281-0.168
						c-0.027-0.015-0.053-0.033-0.079-0.049c-0.001,0-0.003,0-0.003-0.001c-0.373-0.21-0.754-0.402-1.133-0.598
						c-0.164-0.086-0.326-0.174-0.492-0.257c-0.631-0.314-1.27-0.61-1.916-0.888c-0.055-0.024-0.107-0.05-0.162-0.072
						C99.9,40.026,99.11,39.715,98.306,39.438z M113.706,23.62l-1.556-0.69l1.644-3.289l1.426,0.951L113.706,23.62z M110.561,17.484
						l1.426,0.95l-1.809,3.617l-1.556-0.69L110.561,17.484z M106.135,23.103c0.056,0.06,0.105,0.124,0.177,0.172l3.233,2.155
						l3.233,2.156c0.145,0.097,0.311,0.144,0.48,0.163l-1.463,2.926l-2.576-1.145l-5.152-2.291L106.135,23.103z M103.101,29.17
						l1.293,0.574l6.467,2.875l-2.309,5.003l-7.742-3.87L103.101,29.17z M84.274,5.132h2.155l0.001,2.155h-2.156V5.132z
						 M85.187,10.521h0.33L87.313,21.3h-3.922L85.187,10.521z M81.853,23.455h0.266h6.467h0.266l1.54,5.39H80.313L81.853,23.455z
						 M77.628,31h1.256h12.936h1.256l1.336,7.347c-0.11-0.024-0.223-0.04-0.332-0.063c-0.178-0.038-0.355-0.076-0.535-0.112
						c-1.581-3.058-4.722-5.016-8.192-5.016c-3.696,0-7.024,2.19-8.49,5.582c-0.151,0.041-0.298,0.089-0.448,0.131
						c-0.076,0.021-0.15,0.037-0.227,0.059L77.628,31z M72.397,40.261c-0.43,0.177-0.854,0.363-1.273,0.557
						c-0.144,0.065-0.288,0.129-0.432,0.197c-0.72,0.342-1.428,0.705-2.122,1.091c-0.075,0.042-0.147,0.086-0.223,0.128
						c-0.018,0.01-0.034,0.021-0.054,0.03c-0.028,0.017-0.057,0.033-0.084,0.05c-0.615,0.352-1.22,0.721-1.813,1.106
						c-0.074,0.049-0.15,0.096-0.225,0.145c-0.649,0.431-1.284,0.879-1.904,1.35l-4.462-11.158l8.776-3.51l3.978,9.941
						C72.505,40.21,72.452,40.238,72.397,40.261z M55.495,22.978l8.777-3.511l3.51,8.776l-8.776,3.512L55.495,22.978z
						 M56.067,11.681l6.786,6.032l-7.54,3.016L56.067,11.681z"/>
					<path fill="#149CF4" d="M61.639,22.377c-1.782,0-3.233,1.451-3.233,3.234c0,1.782,1.451,3.233,3.233,3.233
						c1.783,0,3.233-1.451,3.233-3.233C64.872,23.828,63.422,22.377,61.639,22.377z M61.639,26.688
						c-0.594,0-1.077-0.483-1.077-1.077c0-0.595,0.483-1.078,1.077-1.078c0.595,0,1.078,0.483,1.078,1.078
						C62.717,26.205,62.233,26.688,61.639,26.688z"/>
				</g>
			</g>
		</g>
	</g>
	<g transform="translate(150.9134864807129, 3.611200687856325)">
		<g transform="scale(1)">
			<g>
				<path fill="#C49A31" d="M111.808,55.344l-3.148-9.125H89.582l-3.148,9.125H76.344L93.572,7.397h11.174l17.212,47.947H111.808z
					 M92.201,38.538h13.854L99.129,18.51L92.201,38.538z M138.01,22.907c1.234-1.837,2.937-3.323,5.104-4.457
					c2.179-1.145,4.664-1.717,7.454-1.717l0,0c3.243,0,6.179,0.798,8.81,2.395c2.631,1.606,4.709,3.88,6.234,6.821
					c1.536,2.951,2.305,6.37,2.305,10.255l0,0c0,3.886-0.769,7.329-2.305,10.331c-1.525,2.991-3.604,5.311-6.234,6.957
					s-5.566,2.47-8.81,2.47l0,0c-2.841,0-5.325-0.563-7.454-1.687c-2.118-1.115-3.82-2.565-5.104-4.353l0,0v5.421h-9.608V4.596
					h9.608V22.907z M158.114,36.204c0-2.278-0.472-4.257-1.415-5.933c-0.935-1.667-2.169-2.937-3.705-3.811
					c-1.525-0.863-3.183-1.295-4.97-1.295l0,0c-1.736,0-3.373,0.447-4.909,1.341c-1.525,0.894-2.761,2.184-3.704,3.87
					c-0.934,1.696-1.4,3.684-1.4,5.963l0,0c0,2.289,0.467,4.281,1.4,5.979c0.943,1.687,2.179,2.977,3.704,3.87
					c1.536,0.894,3.173,1.34,4.909,1.34l0,0c1.787,0,3.444-0.456,4.97-1.37c1.536-0.913,2.771-2.219,3.705-3.915
					C157.642,40.557,158.114,38.543,158.114,36.204L158.114,36.204z M179.783,12.818c-1.696,0-3.102-0.537-4.216-1.611
					c-1.124-1.074-1.687-2.41-1.687-4.006l0,0c0-1.606,0.563-2.946,1.687-4.021c1.114-1.074,2.52-1.611,4.216-1.611l0,0
					c1.688,0,3.093,0.537,4.217,1.611c1.125,1.074,1.687,2.414,1.687,4.021l0,0c0,1.596-0.562,2.932-1.687,4.006
					C182.876,12.281,181.47,12.818,179.783,12.818L179.783,12.818z M174.904,17.351h9.607v37.993h-9.607V17.351z"/>
			</g>
		</g>
	</g>
</g>
</svg>
